<?xml version="1.0" encoding="utf-8"?>
<!-- Generator: Adobe Illustrator 25.3.1, SVG Export Plug-In . SVG Version: 6.00 Build 0)  -->
<svg version="1.1" id="图层_1" xmlns="http://www.w3.org/2000/svg" xmlns:xlink="http://www.w3.org/1999/xlink" x="0px" y="0px"
	 viewBox="0 0 325.76 325.68" style="enable-background:new 0 0 325.76 325.68;" xml:space="preserve">
<style type="text/css">
	.st0{fill:url(#SVGID_1_);}
	.st1{fill:#13AE67;}
	.st2{fill:url(#SVGID_2_);}
	.st3{fill:#FFFFFF;}
</style>
<linearGradient id="SVGID_1_" gradientUnits="userSpaceOnUse" x1="162.7581" y1="46.0916" x2="163.0361" y2="286.8329">
	<stop  offset="0" style="stop-color:#A7DBEF"/>
	<stop  offset="0.732" style="stop-color:#E4F3FA;stop-opacity:0.3512"/>
</linearGradient>
<path class="st0" d="M1.75,141.22h322.28c1.09,7.48,1.67,15.13,1.72,22.9c0-0.42,0.02-0.84,0.02-1.26
	C325.76,72.92,252.84,0,162.89,0S0.02,72.92,0.02,162.87c0,0.42,0.01,0.84,0.02,1.26C0.08,156.35,0.66,148.7,1.75,141.22z"/>
<g>
	<g>
		<g>
			<path class="st1" d="M73.46,141.54c6-9.65,9.37-20.89,9.65-32.26c0.14-5.72-0.37-11.72-3.11-16.86
				c-2.54-4.74-6.98-8.15-12.35-8.93c-5.27-0.77-10.5,0.74-14.71,3.95c-4.1,3.14-7.6,7.89-8.86,12.96
				c-1.38,5.54,1.24,11.01,6.55,13.2c5.08,2.09,11.05,0.21,14.7-3.71c3.39-3.64,7.55-12.76,0.65-15.25
				c-5.13-1.85-13.95,4.01-10.18,9.76c1.76,2.68,6.09,0.18,4.32-2.52c-0.86-1.31,4.17-3.9,4.6-1.92c0.31,1.46-0.84,3.4-1.56,4.58
				c-0.96,1.58-2.27,2.94-3.9,3.84c-3,1.67-7.05,1.51-9.33-1.29c-2.57-3.15-0.63-7.35,1.23-10.34c3.83-6.14,11.48-10.63,18.69-7.51
				c8.11,3.5,8.6,14.29,8.19,21.8c-0.54,9.9-3.67,19.56-8.9,27.98C67.43,141.76,71.76,144.27,73.46,141.54L73.46,141.54z"/>
		</g>
	</g>
</g>
<g>
	<g>
		<g>
			<path class="st1" d="M97,86.51c-3.46-0.27-6.79,1.37-7.71,4.9c-0.41,1.59-0.42,3.37,0.07,4.95c0.5,1.61,1.57,2.74,2.66,3.74
				c2.49,2.3,6.2,2.24,9.21,1.04c3.54-1.4,5.6-4.34,6.91-7.8c1.37-3.61,1.81-7.84,0.4-11.5c-1.26-3.27-3.64-6.09-6.88-7.54
				c-3.17-1.41-6.76-1.63-9.95-0.16c-2.86,1.32-5.05,3.81-6.88,6.29c-4.45,6.02-7.35,13.09-7.13,20.66c0.09,3.21,5.09,3.22,5,0
				c-0.15-5.28,1.39-10.07,4.09-14.57c1.04-1.73,2.14-3.44,3.46-4.92c1.31-1.47,2.94-3.05,4.95-3.42c4.55-0.84,8.68,3.06,9.15,7.45
				c0.47,4.4-1.6,10.7-6.64,11.3c-0.71,0.08-1.66,0.02-2.05-0.27c-0.9-0.68-1.54-1.24-1.68-2.44c-0.08-0.68,0.02-1.75,0.45-2.24
				c0.53-0.61,1.64-0.55,2.56-0.48c1.35,0.11,2.5-1.22,2.5-2.5C99.5,87.57,98.35,86.61,97,86.51L97,86.51z"/>
		</g>
	</g>
</g>
<g>
	<g>
		<path class="st1" d="M112.4,119.56c-0.3-0.02-0.61-0.05-0.91-0.07c0,1.67,0,3.33,0,5c0.27,0.01,0.55,0.23,0.69,0.59
			c0.14,0.35-0.02,0.42-0.22,0.54c-0.36,0.23-0.65,0.22-0.8,0.1c-0.43-0.34-0.57-0.96-0.64-1.48c-0.46-3.71,2.9-7.28,6.65-6.83
			c4.02,0.49,5.98,4.85,5.57,8.49c-0.5,4.45-3.08,8.65-4.89,12.65c-0.56,1.23-0.35,2.69,0.9,3.42c1.07,0.63,2.86,0.34,3.42-0.9
			c2.26-4.99,5.39-10.18,5.61-15.8c0.22-5.43-2.93-10.7-8.19-12.41c-5.38-1.76-11.14,1.43-13.21,6.5c-1.02,2.49-1.24,5.4-0.13,7.89
			c1.1,2.48,3.58,3.89,6.27,3.41c2.6-0.47,4.77-2.76,4.7-5.47c-0.08-3.13-2.65-5.59-5.72-5.71c-1.35-0.05-2.5,1.19-2.5,2.5
			c0,1.44,1.15,2.39,2.5,2.5c0.3,0.02,0.61,0.05,0.91,0.07c1.35,0.11,2.5-1.23,2.5-2.5C114.9,120.62,113.75,119.67,112.4,119.56
			L112.4,119.56z"/>
	</g>
</g>
<g>
	<g>
		<path class="st1" d="M127.79,125.19c0.02-3.02,0.56-6.02,1.65-9c0.16-0.43-0.25,0.51,0.07-0.19c0.07-0.15,0.14-0.29,0.21-0.44
			c0.15-0.29,0.3-0.58,0.47-0.86c0.19-0.31,0.39-0.62,0.6-0.92c0.24-0.34-0.2,0.24,0.05-0.07c0.13-0.16,0.26-0.31,0.39-0.46
			c0.24-0.27,0.5-0.53,0.77-0.78c0.15-0.14,0.3-0.27,0.45-0.4c0.05-0.04,0.37-0.29,0.06-0.06c0.25-0.19,0.51-0.37,0.78-0.53
			c0.13-0.07,0.25-0.15,0.38-0.21c0.07-0.04,0.7-0.28,0.21-0.11c0.28-0.1,0.56-0.2,0.84-0.27c0.18-0.05,0.36-0.07,0.54-0.12
			c0.37-0.1-0.39,0.01-0.01,0c0.33-0.02,0.65-0.04,0.98-0.03c0.14,0.01,0.29,0.02,0.43,0.03c-0.44-0.03-0.02,0,0.18,0.05
			c0.28,0.07,0.55,0.15,0.81,0.25c-0.48-0.2,0.2,0.15,0.34,0.23c0.39,0.23,0.09,0.06,0.01-0.01c0.14,0.12,0.27,0.24,0.4,0.38
			c0.05,0.05,0.34,0.41,0.16,0.17c-0.16-0.22,0.19,0.32,0.23,0.39c0.03,0.06,0.25,0.47,0.11,0.19c-0.16-0.32,0.11,0.32,0.11,0.32
			c0.09,0.28,0.15,0.57,0.21,0.86c0.02,0.12,0.02,0.46,0,0c0.01,0.15,0.03,0.3,0.03,0.45c0.02,0.38,0.01,0.77-0.02,1.15
			c-0.01,0.16-0.03,0.31-0.04,0.46c0.05-0.49-0.01,0.02-0.03,0.15c-0.05,0.31-0.12,0.61-0.19,0.92c-0.08,0.34-0.18,0.67-0.28,1
			c-0.05,0.15-0.1,0.3-0.15,0.45c0,0.01-0.28,0.73-0.11,0.33c-0.16,0.38-0.37,0.73-0.57,1.1c-0.03,0.05-0.26,0.4-0.03,0.09
			c-0.15,0.19-0.32,0.37-0.5,0.53c0.08-0.07,0.37-0.2-0.06,0.04c-0.11,0.06-0.69,0.27-0.26,0.14c-0.15,0.04-0.3,0.09-0.46,0.12
			c0.07-0.01,0.14-0.02,0.2-0.04c-0.3-0.01-0.31,0-0.02,0.04c-0.04-0.01-0.07-0.02-0.11-0.03c-0.17-0.05-0.15-0.03,0.06,0.07
			c-0.07-0.04-0.13-0.07-0.2-0.11c0.2,0.18,0.24,0.21,0.12,0.09c-0.26-0.27,0.4,0.47,0.03,0.02c0.17,0.2,0.1,0.39,0.04,0.03
			c-0.05-0.35-0.03,0.62,0.03,0.06c-0.03,0.28-0.13,0.4,0.01,0.08c0.12-0.28-0.29,0.45-0.29,0.46c0.29-0.36-0.43,0.23,0.03,0
			c1.17-0.59,1.6-2.33,0.9-3.42c-0.77-1.2-2.17-1.53-3.42-0.9c-2.21,1.11-2.71,3.99-1.68,6.07c1.09,2.22,3.83,2.97,6.09,2.28
			c4.23-1.29,5.91-6.75,5.92-10.73c0.01-2.17-0.6-4.26-1.97-5.96c-1.35-1.67-3.33-2.54-5.43-2.77c-4.33-0.49-8.11,2.2-10.5,5.58
			c-1.3,1.85-2.03,3.98-2.57,6.16c-0.62,2.5-1.04,5.09-1.06,7.67c-0.01,1.31,1.16,2.56,2.5,2.5
			C126.65,127.63,127.78,126.6,127.79,125.19L127.79,125.19z"/>
	</g>
</g>
<g>
	<g>
		<path class="st1" d="M238.27,140.25c2.37-5.88,2.74-12.5,1.25-18.65c-1.37-5.63-4.57-12.14-10.14-14.65
			c-6.39-2.88-13.26,1.21-14.96,7.78c-1.53,5.94,1.38,14,8.52,14c3.59,0,6.89-2.83,7.12-6.46c0.26-4.05-3.54-6.93-7.33-6.32
			c-1.33,0.22-2.08,1.87-1.75,3.08c0.39,1.42,1.74,1.96,3.08,1.75c0.33-0.05,0.8,0.49,0.91,0.75c0.21,0.5,0.06,0.97-0.29,1.4
			c-0.98,1.2-2.65,0.91-3.76,0.08c-3-2.24-2.33-7.63-0.05-10.11c2.76-3,6.51-2.08,9.08,0.59c2.88,2.99,4.41,7.24,5.12,11.26
			c0.84,4.78,0.18,9.71-1.62,14.19c-0.5,1.25,0.55,2.75,1.75,3.08C236.63,142.39,237.77,141.51,238.27,140.25L238.27,140.25z"/>
	</g>
</g>
<g>
	<g>
		<path class="st1" d="M244.59,106.12c-2.02,4.56,1.86,9.35,6.78,8.27c4.78-1.05,6.55-6.57,4.87-10.77
			c-1.7-4.26-6.26-8.1-11.07-6.76c-4.78,1.34-6.83,6.23-8.14,10.55c-1.62,5.35-2.27,11.02-1.97,16.59c0.17,3.2,5.18,3.22,5,0
			c-0.23-4.24,0.09-8.46,1.07-12.6c0.46-1.93,1-3.9,1.78-5.73c0.63-1.5,1.57-3.15,3.13-3.83c2.78-1.22,5.82,2.5,5.87,5.06
			c0.02,1.13-0.55,2.58-1.87,2.66c-0.57,0.03-1.3-0.54-1.13-0.92c0.55-1.23,0.36-2.69-0.9-3.42
			C246.95,104.6,245.14,104.88,244.59,106.12L244.59,106.12z"/>
	</g>
</g>
<g>
	<g>
		<path class="st1" d="M281.43,141.45c8.63-11.62,10.15-27.93,6.44-41.64c-1.88-6.93-6.56-14.18-14.21-15.39
			c-3.5-0.56-7.34,0.32-9.48,3.35c-2.21,3.12-1.59,7.76-0.18,11.08c1.64,3.87,6.29,6.92,10.3,4.26c4.12-2.74,2.69-9-2.26-9.47
			c-1.35-0.13-2.5,1.24-2.5,2.5c0,1.46,1.15,2.37,2.5,2.5c-1.16-0.11,0.17-0.21-0.21,0.11c0.01,0,0.03-0.09-0.05,0.05
			c-0.37,0.67-1.55,0.16-1.94-0.14c-1.74-1.31-2.36-4.7-2.03-6.73c0.34-2.15,2.39-2.78,4.32-2.68c2.23,0.11,4.38,1.36,5.98,2.86
			c4.03,3.77,5.37,9.52,6.11,14.79c0.73,5.23,0.72,10.69-0.24,15.89c-1.08,5.86-3.29,11.36-6.85,16.15
			c-0.81,1.08-0.18,2.79,0.9,3.42C279.29,143.09,280.62,142.53,281.43,141.45L281.43,141.45z"/>
	</g>
</g>
<g>
	<g>
		<path class="st1" d="M282.3,89.16c-0.27-0.32,0.21,0.36-0.09-0.13c-0.12-0.19-0.24-0.38-0.36-0.58c-0.12-0.21-0.23-0.43-0.34-0.65
			c-0.06-0.13-0.12-0.26-0.19-0.4c-0.17-0.37,0.2,0.55-0.06-0.14c-0.42-1.14-0.78-2.29-1.06-3.48c-0.14-0.6-0.26-1.2-0.37-1.81
			c-0.05-0.3-0.1-0.61-0.15-0.91c-0.01-0.06-0.07-0.49-0.02-0.11c-0.02-0.17-0.04-0.34-0.06-0.51c-0.13-1.18-0.2-2.37-0.16-3.56
			c0.01-0.26,0.11-0.78,0.26-1.05c0.25-0.44,0.48-0.77,0.92-1.01c0.15-0.08,0.47-0.14,0.75-0.1c0.71,0.11,1.22,0.33,1.77,0.6
			c2.41,1.15,4.75,2.89,5.98,5.23c0.28,0.53,0.41,0.87,0.32,1.57c0.07-0.5-0.29,0.58-0.07,0.16c-0.06,0.11-0.12,0.22-0.19,0.32
			c-0.09,0.15-0.09,0.14,0.02-0.03c-0.06,0.06-0.12,0.11-0.17,0.17c0.34-0.08-0.32,0.06,0.09-0.06c-0.23,0.06-0.4,0-0.76-0.14
			c-0.58-0.22-1.44-0.85-2.05-1.31c-1.08-0.81-2.79-0.17-3.42,0.9c-0.75,1.28-0.19,2.61,0.9,3.42c1.84,1.38,4.06,2.54,6.43,1.99
			c2.08-0.49,3.66-2.31,4.08-4.38c0.91-4.46-2.75-8.27-6.08-10.64c-3.36-2.4-8.3-4.3-11.64-0.81c-2.81,2.94-2.27,7.14-1.71,10.83
			c0.54,3.53,1.51,7.39,3.87,10.17c0.87,1.03,2.64,0.9,3.54,0C283.32,91.68,283.18,90.2,282.3,89.16L282.3,89.16z"/>
	</g>
</g>
<linearGradient id="SVGID_2_" gradientUnits="userSpaceOnUse" x1="162.8104" y1="115.587" x2="163.1081" y2="352.5146">
	<stop  offset="0" style="stop-color:#7A6A56"/>
	<stop  offset="0.6378" style="stop-color:#5A493C"/>
	<stop  offset="1" style="stop-color:#4A392E"/>
</linearGradient>
<path class="st2" d="M1.73,139.04C0.6,146.8,0,154.73,0,162.81c0,89.95,72.92,162.87,162.87,162.87s162.87-72.92,162.87-162.87
	c0-8.07-0.6-16.01-1.73-23.77H1.73z"/>
<g>
	<g>
		<path class="st3" d="M54.6,180.64c-1.64,0.52-2.97,1.49-4,2.86c-0.96,1.28-1.39,2.85-1.51,4.43c-0.11,1.46-0.01,3.17,0.72,4.46
			c0.29,0.51,0.62,1.08,1.03,1.51c0.54,0.58,1.36,0.93,2.12,1.11c1.27,0.29,2.67,0.41,3.96,0.15c1.23-0.25,2.3-1.06,3.07-2.02
			c1-1.24,1.82-2.54,2.28-4.08c0.41-1.38,0.57-2.92,0.42-4.36c-0.2-2.05-1.12-3.93-3.23-4.56c-1.36-0.4-3.21-0.53-4.47,0.22
			c-1.13,0.67-1.63,2.28-0.9,3.42c0.73,1.13,2.22,1.61,3.42,0.9c0.31-0.18-0.61,0.23-0.33,0.14c0.1-0.03,0.37-0.06-0.08,0
			c-0.53,0.07,0.13,0.02,0.26,0.02c0.17,0.01,0.34,0.04,0.52,0.04c-0.81,0-0.2-0.03,0.05,0.03c0.26,0.06,0.68,0.31-0.04-0.06
			c0.16,0.08,0.3,0.27-0.19-0.16c0.23,0.2-0.13,0.07-0.14-0.2c0,0,0.11,0.22,0.13,0.24c-0.25-0.19-0.17-0.5-0.1-0.21
			c0.03,0.12,0.07,0.23,0.09,0.34c0.12,0.56-0.02-0.35,0-0.1c0.03,0.47,0.05,0.94,0.03,1.42c-0.01,0.12-0.01,0.23-0.02,0.35
			c0,0.06-0.09,0.61-0.01,0.18c0.07-0.38,0,0-0.02,0.09c-0.03,0.17-0.07,0.34-0.11,0.51c-0.06,0.25-0.13,0.5-0.22,0.74
			c-0.03,0.09-0.11,0.24-0.12,0.32c0.02-0.33,0.17-0.36,0.05-0.13c-0.24,0.48-0.51,0.92-0.82,1.35c-0.07,0.1-0.16,0.19-0.22,0.29
			c0.02-0.03,0.4-0.48,0.14-0.18c-0.11,0.13-0.22,0.26-0.33,0.38c-0.07,0.08-0.57,0.49-0.18,0.19c0.36-0.28,0.06-0.06-0.02-0.01
			c-0.23,0.13-0.45,0.08,0.2-0.06c-0.15,0.03-0.3,0.09-0.44,0.13c-0.39,0.11,0.31-0.05,0.29-0.04c-0.06,0.04-0.26,0.01-0.34,0.01
			c-0.32,0-0.86,0.03-1.17-0.09c0,0,0.69,0.12,0.29,0.04c-0.08-0.02-0.17-0.03-0.25-0.05c-0.18-0.04-0.36-0.11-0.54-0.15
			c-0.3-0.06,0.6,0.29,0.24,0.09c-0.19-0.11-0.15-0.24,0.27,0.21c-0.01-0.01,0.39,0.57,0.24,0.28c-0.05-0.1-0.13-0.2-0.19-0.3
			c-0.1-0.16-0.2-0.31-0.29-0.48c-0.05-0.08-0.24-0.49-0.05-0.05c0.18,0.43,0.06-0.17,0.08,0.29c0.02,0.51,0-0.09-0.01-0.16
			c-0.01-0.12-0.02-0.23-0.03-0.35c-0.02-0.28-0.04-0.56-0.04-0.84c-0.01-0.27,0-0.54,0.02-0.81c0-0.02,0.05-0.28,0.03-0.32
			c-0.06,0.4-0.06,0.46-0.01,0.18c0.01-0.05,0.02-0.11,0.03-0.16c0.05-0.2,0.1-0.69,0.25-0.82c-0.15,0.13-0.18,0.37-0.05,0.12
			c0.07-0.13,0.14-0.27,0.22-0.41c0.07-0.11,0.14-0.21,0.21-0.32c0.16-0.25-0.37,0.39-0.05,0.09c0.09-0.09,0.18-0.19,0.27-0.28
			c0.07-0.07,0.5-0.39,0.16-0.16c-0.31,0.21-0.02,0.02,0.06-0.03c0.13-0.09,0.26-0.16,0.4-0.24c0.09-0.05,0.18-0.09,0.28-0.14
			c0.17-0.08,0.09-0.04-0.24,0.1c0.1-0.04,0.19-0.07,0.29-0.1c1.25-0.39,2.17-1.76,1.75-3.08C57.27,181.14,55.93,180.22,54.6,180.64
			L54.6,180.64z"/>
	</g>
</g>
<g>
	<g>
		<path class="st3" d="M59.98,154.72c-1.13,0.28-2.35,0.54-3.31,1.23c-1.34,0.97-2.08,2.34-2.55,3.91
			c-0.48,1.58-0.78,3.28-0.41,4.92c0.37,1.63,1.65,2.94,3.14,3.61c3.28,1.48,7.25,1.24,10.05-1.13c2.46-2.08,3.27-5.95,1.43-8.7
			c-0.73-1.1-1.81-2.11-2.89-2.86c-1.3-0.91-2.99-1.25-4.55-1.16c-1.3,0.08-2.56,1.1-2.5,2.5c0.06,1.29,1.1,2.58,2.5,2.5
			c0.28-0.02,0.57-0.02,0.85-0.01c0.07,0,0.23,0.04,0.31,0.03c-0.43,0.08-0.48-0.08-0.16-0.01c0.2,0.04,0.38,0.11,0.58,0.16
			c0.44,0.13-0.46-0.25-0.2-0.08c0.1,0.06,0.21,0.11,0.32,0.17c0.15,0.09,0.28,0.2,0.43,0.28c-0.69-0.4-0.19-0.14,0,0.03
			c0.26,0.23,0.5,0.49,0.74,0.74c0.11,0.11,0.22,0.22,0.33,0.34c0.31,0.33-0.09,0.05-0.06-0.1c0,0.02,0.16,0.25,0.16,0.25
			c0.01,0.02,0.1,0.24,0.14,0.26c-0.05-0.11-0.09-0.22-0.14-0.32c0.03,0.09,0.07,0.19,0.09,0.28c0.03,0.1,0.05,0.19,0.07,0.29
			c0.13,0.5-0.02-0.59-0.01-0.07c0.01,0.22-0.07,0.55-0.02,0.75c-0.02-0.06,0.13-0.62,0.02-0.22c-0.03,0.1-0.05,0.19-0.07,0.29
			c-0.02,0.06-0.19,0.53-0.03,0.13c0.17-0.4-0.04,0.06-0.07,0.12c-0.05,0.09-0.1,0.18-0.16,0.26c-0.32,0.49-0.07-0.03,0.03-0.01
			c-0.05-0.01-0.46,0.47-0.54,0.55c-0.31,0.3,0.1-0.11,0.15-0.1c-0.05-0.01-0.26,0.18-0.32,0.22c-0.2,0.13-0.4,0.23-0.61,0.34
			c-0.46,0.25,0.43-0.13,0.1-0.04c-0.17,0.05-0.34,0.12-0.52,0.16c-0.15,0.04-0.3,0.07-0.45,0.1c-0.48,0.11,0.08,0.01,0.11-0.01
			c-0.19,0.1-0.72,0.04-0.93,0.04c-0.12,0-0.25-0.01-0.37-0.02c-0.04,0-0.64-0.08-0.23-0.02c0.42,0.07-0.19-0.04-0.22-0.05
			c-0.18-0.04-0.37-0.08-0.55-0.13c-0.22-0.06-0.44-0.14-0.65-0.21c-0.32-0.11,0.55,0.3,0.1,0.04c-0.09-0.05-0.18-0.09-0.27-0.15
			c-0.12-0.07-0.36-0.34-0.12-0.06c0.26,0.32-0.03-0.03-0.09-0.09c-0.07-0.07-0.13-0.16-0.2-0.22c0.22,0.3,0.28,0.37,0.18,0.21
			c-0.04-0.06-0.08-0.13-0.11-0.19c0.29,0.31,0.15,0.42,0.06,0.08c-0.13-0.5-0.05,0.05-0.01,0.07c-0.07-0.03,0-0.61,0-0.71
			c0-0.6-0.12,0.55,0-0.04c0.02-0.11,0.04-0.23,0.06-0.34c0.05-0.25,0.11-0.49,0.17-0.74c0.08-0.3,0.16-0.59,0.26-0.88
			c0.03-0.1,0.07-0.2,0.1-0.3c0.18-0.52-0.26,0.49-0.01,0.02c0.06-0.11,0.11-0.22,0.17-0.33c0.27-0.46-0.19,0.17-0.08,0.06
			c0.11-0.11,0.33-0.28,0.4-0.41c-0.21,0.39-0.49,0.34-0.27,0.21c0.08-0.05,0.17-0.1,0.25-0.15c0.19-0.12,0.51-0.13-0.22,0.08
			c0.11-0.03,0.21-0.08,0.32-0.11c0.53-0.17,1.07-0.3,1.61-0.43c1.27-0.31,2.15-1.81,1.75-3.08
			C62.63,155.15,61.35,154.38,59.98,154.72L59.98,154.72z"/>
	</g>
</g>
<g>
	<g>
		<path class="st3" d="M76.04,174.12c-1.22-0.08-2.53,0.38-3.54,1.04c-1.14,0.75-2.07,1.7-2.83,2.82c-0.74,1.09-1.12,2.32-1.25,3.62
			c-0.12,1.19,0.17,2.59,0.87,3.56c1,1.39,2.57,2.21,4.31,2.05c1.42-0.13,2.79-0.59,4.07-1.21c1.17-0.57,2.18-1.51,2.89-2.6
			c0.64-0.98,0.83-2.27,0.91-3.41c0.09-1.28-0.18-2.61-0.96-3.66c-1.03-1.39-2.48-2.2-4.23-2.23c-1.31-0.02-2.56,1.16-2.5,2.5
			c0.06,1.37,1.1,2.48,2.5,2.5c0.12,0,0.25,0.01,0.37,0.02c-0.22-0.03-0.44-0.06-0.66-0.09c0.25,0.04,0.48,0.1,0.71,0.19
			c-0.2-0.08-0.4-0.17-0.6-0.25c0.21,0.09,0.39,0.21,0.57,0.34c-0.17-0.13-0.34-0.26-0.51-0.39c0.16,0.13,0.3,0.27,0.43,0.43
			c-0.13-0.17-0.26-0.34-0.39-0.51c0.16,0.21,0.29,0.44,0.4,0.68c-0.08-0.2-0.17-0.4-0.25-0.6c0.09,0.22,0.17,0.44,0.2,0.67
			c-0.03-0.22-0.06-0.44-0.09-0.66c0.06,0.5,0.03,1.01-0.03,1.5c0.03-0.22,0.06-0.44,0.09-0.66c-0.06,0.46-0.16,0.91-0.33,1.33
			c0.08-0.2,0.17-0.4,0.25-0.6c-0.1,0.24-0.24,0.44-0.4,0.64c0.13-0.17,0.26-0.34,0.39-0.51c-0.24,0.3-0.5,0.56-0.8,0.8
			c0.17-0.13,0.34-0.26,0.51-0.39c-0.41,0.32-0.86,0.57-1.34,0.77c0.2-0.08,0.4-0.17,0.6-0.25c-0.74,0.31-1.52,0.57-2.31,0.69
			c0.22-0.03,0.44-0.06,0.66-0.09c-0.3,0.04-0.59,0.04-0.89,0.01c0.22,0.03,0.44,0.06,0.66,0.09c-0.21-0.04-0.41-0.09-0.6-0.17
			c0.2,0.08,0.4,0.17,0.6,0.25c-0.13-0.06-0.25-0.13-0.37-0.22c0.17,0.13,0.34,0.26,0.51,0.39c-0.16-0.12-0.29-0.26-0.42-0.41
			c0.13,0.17,0.26,0.34,0.39,0.51c-0.12-0.16-0.21-0.33-0.3-0.51c0.08,0.2,0.17,0.4,0.25,0.6c-0.1-0.25-0.17-0.51-0.22-0.79
			c0.03,0.22,0.06,0.44,0.09,0.66c-0.05-0.39-0.05-0.77,0-1.16c-0.03,0.22-0.06,0.44-0.09,0.66c0.06-0.39,0.16-0.75,0.3-1.12
			c-0.08,0.2-0.17,0.4-0.25,0.6c0.22-0.53,0.52-1.01,0.86-1.47c-0.13,0.17-0.26,0.34-0.39,0.51c0.37-0.46,0.78-0.88,1.24-1.25
			c-0.17,0.13-0.34,0.26-0.51,0.39c0.39-0.29,0.79-0.55,1.24-0.74c-0.2,0.08-0.4,0.17-0.6,0.25c0.29-0.11,0.58-0.2,0.88-0.25
			c-0.22,0.03-0.44,0.06-0.66,0.09c0.19-0.02,0.38-0.03,0.58-0.02c1.31,0.09,2.56-1.21,2.5-2.5
			C78.48,175.19,77.45,174.22,76.04,174.12L76.04,174.12z"/>
	</g>
</g>
<g>
	<g>
		<path class="st3" d="M73.76,193.79c-1.58,0.18-2.96,0.59-4.17,1.67c-1,0.89-1.66,2.23-2.02,3.49c-0.39,1.35-0.53,2.87-0.5,4.28
			c0.04,1.58,0.46,3.22,1.67,4.32c2.54,2.32,6.29,1.34,8.64-0.71c2.37-2.08,3.15-5.34,2.61-8.36c-0.16-0.9-0.49-1.79-1.11-2.48
			c-0.41-0.45-0.94-0.78-1.43-1.13c-1.13-0.79-2.39-0.94-3.72-1.08c-1.31-0.13-2.56,1.25-2.5,2.5c0.07,1.47,1.1,2.36,2.5,2.5
			c0.12,0.01,0.23,0.03,0.35,0.04c0.55,0.05-0.49-0.09-0.15-0.02c0.17,0.03,0.34,0.06,0.51,0.1c0.11,0.03,0.23,0.09,0.35,0.11
			c-0.71-0.12-0.55-0.26-0.37-0.15c0.07,0.04,0.15,0.08,0.22,0.12c0.26,0.16,0.5,0.36,0.76,0.52c0.26,0.17-0.49-0.46-0.22-0.17
			c0.02,0.02,0.13,0.11,0.13,0.13c-0.01,0.03-0.41-0.58-0.23-0.28c0.19,0.32-0.17-0.62-0.07-0.17c0.04,0.21,0.12,0.42,0.16,0.63
			c-0.01-0.03,0.07,0.33,0.06,0.33c0,0-0.06-0.61-0.03-0.08c0.01,0.22,0.02,0.45,0.01,0.67c0,0.14-0.02,0.28-0.03,0.42
			c-0.03,0.47,0.09-0.39,0.01-0.08c-0.06,0.24-0.1,0.49-0.18,0.73c-0.03,0.11-0.07,0.21-0.11,0.32c-0.14,0.42,0.02-0.09,0.06-0.13
			c-0.13,0.15-0.21,0.41-0.31,0.58c-0.05,0.08-0.1,0.17-0.16,0.25c-0.31,0.46,0.2-0.21,0.04-0.03c-0.28,0.31-0.58,0.59-0.89,0.87
			c0.51-0.48,0.09-0.09-0.1,0.03c-0.2,0.12-0.46,0.2-0.65,0.34c0.41-0.3,0.38-0.15,0.12-0.07c-0.09,0.03-0.18,0.06-0.27,0.08
			c-0.09,0.02-0.19,0.04-0.28,0.06c-0.33,0.08,0.67-0.02,0.16-0.03c-0.19,0-0.39-0.02-0.57-0.01c0.55-0.03,0.46,0.08,0.25,0.02
			c-0.13-0.04-0.27-0.09-0.4-0.12c0.51,0.13,0.41,0.18,0.23,0.07c-0.35-0.2,0.17,0.11,0.17,0.15c0,0.01-0.39-0.47-0.1-0.07
			c0.23,0.32,0.04,0.04-0.01-0.05c-0.21-0.38,0.11-0.05,0.04,0.14c0.01-0.03-0.08-0.27-0.08-0.28c-0.02-0.09-0.03-0.2-0.06-0.29
			c0.05,0.39,0.06,0.49,0.04,0.29c-0.01-0.08-0.01-0.15-0.02-0.23c-0.03-0.43-0.01-0.87,0.01-1.3c0.01-0.23,0.03-0.46,0.05-0.68
			c0.01-0.07,0-0.39,0.04-0.43c-0.09,0.07-0.09,0.57,0,0.07c0.05-0.28,0.11-0.56,0.18-0.83c0.04-0.14,0.08-0.27,0.12-0.41
			c0.04-0.1,0.26-0.48,0.06-0.17c-0.23,0.34,0.07-0.11,0.09-0.16c0.05-0.09,0.1-0.18,0.16-0.27c0.04-0.06,0.1-0.22,0.17-0.25
			c-0.07,0.04-0.44,0.49-0.13,0.18c0.09-0.08,0.59-0.53,0.21-0.24c-0.38,0.3,0.2-0.08,0.3-0.15c0.26-0.16-0.64,0.21-0.19,0.08
			c0.11-0.03,0.21-0.07,0.32-0.1c0.19-0.05,1.08-0.18,0.28-0.08c0.68-0.08,1.26-0.23,1.77-0.73c0.43-0.43,0.76-1.15,0.73-1.77
			C76.2,195.06,75.15,193.62,73.76,193.79L73.76,193.79z"/>
	</g>
</g>
<g>
	<g>
		<path class="st3" d="M50.68,206.72c-1.73-0.05-3.28,0.8-4.59,1.85c-1.27,1.02-2.38,2.37-2.73,4c-0.71,3.3,0.92,6.77,3.93,8.33
			c1.47,0.76,3.14,1.15,4.8,1.12c1.64-0.03,3.46-0.38,4.83-1.33c1.55-1.07,2.44-2.7,2.73-4.55c0.28-1.76,0.58-3.78-0.02-5.5
			c-0.72-2.05-2.34-3.21-4.38-3.76c-1.57-0.42-3.37-0.58-4.95-0.13c-1.26,0.36-2.17,1.78-1.75,3.08c0.41,1.28,1.73,2.13,3.08,1.75
			c0.1-0.03,0.2-0.05,0.3-0.08c0.27-0.07,0.35,0.08-0.21,0.02c0.2,0.02,0.44-0.03,0.65-0.03c0.23,0,0.46,0.01,0.69,0.03
			c0.08,0.01,0.23,0.04,0.31,0.03c-0.4-0.06-0.47-0.06-0.2-0.02c0.05,0.01,0.1,0.02,0.15,0.03c0.48,0.09,0.92,0.26,1.39,0.39
			c0.32,0.09-0.57-0.29-0.15-0.06c0.07,0.04,0.15,0.08,0.23,0.12c0.02,0.01,0.17,0.13,0.21,0.13c-0.28-0.23-0.32-0.25-0.13-0.07
			c0.14,0.16,0.15,0.17,0.01,0.01c-0.03-0.04-0.07-0.08-0.1-0.12c0.06,0.09,0.11,0.19,0.16,0.29c-0.02,0.02-0.19-0.61-0.06-0.13
			c0.03,0.11,0.05,0.22,0.09,0.33c0.15,0.49,0.02-0.34,0,0.03c-0.03,0.69-0.03,1.37-0.1,2.06c-0.01,0.08,0,0.38-0.05,0.43
			c0.01-0.01,0.1-0.64,0.02-0.15c-0.04,0.25-0.09,0.5-0.15,0.75c-0.03,0.14-0.08,0.27-0.12,0.41c-0.12,0.49,0.06-0.16,0.07-0.13
			c0.02,0.05-0.16,0.31-0.19,0.37c-0.04,0.07-0.08,0.14-0.13,0.21c0.21-0.26,0.26-0.32,0.14-0.18c-0.04,0.04-0.25,0.32-0.3,0.3
			c-0.02-0.01,0.53-0.33,0.1-0.08c-0.12,0.07-0.24,0.15-0.37,0.21c-0.03,0.01-0.05,0.03-0.08,0.04c-0.25,0.11-0.21,0.1,0.12-0.05
			c-0.04,0.1-0.55,0.17-0.66,0.2c-0.14,0.03-0.28,0.06-0.42,0.09c-0.08,0.02-0.17,0.03-0.25,0.04c0.36-0.05,0.45-0.06,0.25-0.04
			c-0.54,0.04-1.05,0.04-1.59,0.02c-0.17-0.01-0.42-0.11,0.17,0.03c-0.11-0.03-0.22-0.03-0.33-0.06c-0.33-0.06-0.65-0.15-0.96-0.25
			c-0.1-0.03-0.21-0.1-0.31-0.11c0.45,0.08,0.34,0.16,0.14,0.05c-0.24-0.13-0.47-0.27-0.71-0.41c-0.29-0.17-0.02,0.09,0.11,0.1
			c-0.08-0.01-0.25-0.21-0.31-0.27c-0.09-0.09-0.19-0.18-0.27-0.27c-0.03-0.04-0.07-0.08-0.1-0.11c-0.17-0.2-0.13-0.15,0.11,0.15
			c0.02-0.09-0.27-0.42-0.32-0.52c-0.05-0.09-0.17-0.5-0.07-0.11c0.11,0.42-0.02-0.06-0.04-0.13c-0.07-0.22-0.11-0.44-0.17-0.66
			c-0.09-0.33,0.03,0.66,0.02,0.14c-0.01-0.15-0.02-0.3-0.02-0.45c0-0.1,0.01-0.2,0.01-0.3c0.02-0.51-0.15,0.57-0.01,0.08
			c0.03-0.12,0.06-0.24,0.09-0.36c0.17-0.53-0.15,0.25-0.03,0.05c0.06-0.11,0.12-0.22,0.18-0.33c0.2-0.4-0.37,0.38,0.02-0.03
			c0.21-0.22,0.42-0.45,0.64-0.66c0.11-0.1,0.23-0.19,0.34-0.29c0.14-0.12,0.09-0.08-0.16,0.12c0.07-0.05,0.14-0.1,0.21-0.15
			c0.25-0.17,0.5-0.3,0.76-0.45c0.26-0.14,0.12,0.09-0.18,0.07c0.11,0.01,0.29-0.1,0.41-0.13c0.09-0.02,0.54-0.09,0.06-0.03
			c-0.49,0.06,0.07,0.02,0.17,0.02c1.31,0.04,2.56-1.18,2.5-2.5C53.12,207.83,52.08,206.75,50.68,206.72L50.68,206.72z"/>
	</g>
</g>
<g>
	<g>
		<path class="st3" d="M35.21,194.96c-2.25,0.02-4.47,1.74-6.03,3.2c-2.1,1.96-3.6,5.34-1.89,8.02c1.96,3.07,5.89,2.88,8.94,1.87
			c2.85-0.94,6.24-2.67,6.41-6.08c0.09-1.86-1.05-3.51-2.34-4.73c-1.26-1.19-2.93-2.4-4.77-2.28c-1.3,0.08-2.56,1.09-2.5,2.5
			c0.06,1.28,1.1,2.59,2.5,2.5c0.01,0,0.26,0.01,0.28-0.01c-0.27,0.17-0.53-0.14-0.23-0.01c0.07,0.03,0.23,0.09,0.29,0.1
			c-0.1-0.01-0.5-0.27-0.15-0.04c0.19,0.13,0.39,0.24,0.58,0.37c0.05,0.04,0.31,0.2,0.03,0.02c-0.31-0.2,0.1,0.09,0.16,0.15
			c0.1,0.09,0.93,1.01,0.99,1c-0.04,0.01-0.32-0.5-0.07-0.08c0.06,0.1,0.12,0.2,0.19,0.3c0.04,0.07,0.14,0.33,0.02,0.02
			c-0.15-0.44,0.05,0.18,0.04,0.19c-0.1,0.03,0-0.57-0.03-0.16c-0.03,0.45,0.02-0.09,0.03-0.15c-0.08,0.44,0.02-0.15,0.09-0.15
			c-0.01,0-0.16,0.3-0.15,0.28c-0.18,0.34,0.02-0.18,0.11-0.12c0,0-0.23,0.25-0.22,0.23c-0.08,0.08-0.16,0.15-0.24,0.22
			c-0.26,0.24,0.02-0.07,0.12-0.09c-0.16,0.03-0.41,0.27-0.55,0.35c-0.2,0.11-0.4,0.22-0.6,0.32c-0.21,0.1-0.47,0.28-0.69,0.32
			c0.06-0.01,0.51-0.2,0.07-0.04c-0.15,0.05-0.3,0.11-0.45,0.16c-0.45,0.16-0.91,0.29-1.37,0.41c-0.25,0.06-0.5,0.11-0.75,0.16
			c-0.13,0.03-0.47,0.14,0.09,0c-0.15,0.04-0.33,0.03-0.48,0.04c-0.02,0-0.67,0.01-0.67-0.01c0-0.04,0.5,0.11,0.09,0.01
			c-0.1-0.02-0.21-0.06-0.31-0.08c-0.46-0.09,0.16,0.02,0.15,0.08c0,0-0.31-0.16-0.28-0.15c-0.08-0.05-0.18-0.14-0.27-0.17
			c0.18,0.07,0.4,0.29,0.09,0.02c-0.23-0.2,0.23,0.42,0.11,0.13c-0.02-0.04-0.08-0.18-0.12-0.21c0.1,0.08,0.22,0.44,0.08,0.13
			c-0.17-0.39,0.07,0.09,0.02,0.18c-0.02,0.03,0.01-0.32,0-0.33c0.11,0.04-0.13,0.55-0.02,0.17c0.03-0.11,0.05-0.22,0.09-0.33
			c0.03-0.11,0.26-0.47,0.06-0.18c-0.2,0.28,0.02,0,0.06-0.09c0.06-0.1,0.11-0.2,0.18-0.3c0.1-0.16,0.2-0.39,0.35-0.51
			c-0.37,0.29-0.19,0.23-0.07,0.1c0.04-0.05,0.08-0.1,0.13-0.14c0.11-0.12,0.23-0.24,0.35-0.35c0.14-0.13,0.28-0.26,0.42-0.38
			c0.08-0.07,0.63-0.5,0.28-0.24c-0.32,0.23-0.05,0.04,0.03-0.02c0.1-0.07,0.2-0.14,0.3-0.21c0.18-0.13,0.36-0.25,0.54-0.36
			c0.35-0.22,0.71-0.4,1.07-0.59c0.27-0.14-0.55,0.2-0.26,0.11c0.09-0.03,0.18-0.06,0.26-0.09c0.54-0.18-0.61,0.01-0.11,0.01
			c1.31-0.01,2.56-1.14,2.5-2.5C37.65,196.12,36.62,194.95,35.21,194.96L35.21,194.96z"/>
	</g>
</g>
<g>
	<g>
		<path class="st3" d="M33.17,171.24c-1.06,1.02-1.68,2.6-2.12,3.97c-0.51,1.59-0.48,3.33,0.35,4.81c1.56,2.77,5.01,3.53,7.9,2.77
			c1.28-0.33,2.63-0.9,3.69-1.69c1.41-1.05,2.31-2.44,2.38-4.23c0.06-1.36-0.45-2.76-1.1-3.93c-0.57-1.03-1.36-2.1-2.46-2.63
			c-1.18-0.56-2.44-0.82-3.75-0.84c-1.25-0.02-2.61,0.2-3.7,0.86c-1.12,0.67-1.63,2.28-0.9,3.42c0.73,1.13,2.22,1.62,3.42,0.9
			c0,0,0.15-0.07,0.16-0.09c0.03-0.01,0.06-0.03,0.08-0.04c-0.44,0.18-0.56,0.23-0.38,0.16c0.15-0.05,0.29-0.1,0.44-0.13
			c0.14-0.03,0.29-0.05,0.43-0.08c-0.85,0.2-0.24,0.03,0.03,0.02c0.34-0.01,0.68,0,1.02,0.03c0.55,0.04-0.64-0.12-0.02,0
			c0.19,0.03,0.37,0.08,0.55,0.13c0.14,0.04,0.27,0.1,0.41,0.13c-0.72-0.19-0.37-0.17-0.11-0.02c0.05,0.03,0.1,0.07,0.15,0.1
			c0.24,0.12-0.48-0.43-0.3-0.24c0.07,0.08,0.47,0.54,0.19,0.19c-0.28-0.36,0.13,0.21,0.2,0.31c0.1,0.16,0.2,0.33,0.29,0.49
			c0.04,0.08,0.08,0.17,0.13,0.26c0.24,0.45-0.16-0.45-0.05-0.13c0.08,0.22,0.16,0.45,0.22,0.68c0.02,0.09,0.04,0.18,0.06,0.27
			c0.08,0.32-0.03-0.68-0.02-0.19c0,0.17-0.01,0.35,0,0.52c-0.03-0.59,0.09-0.5,0.03-0.29c-0.01,0.05-0.07,0.18-0.07,0.24
			c0-0.38,0.24-0.5,0.05-0.18c-0.23,0.4-0.02-0.07,0.1-0.1c0.01,0-0.7,0.58-0.27,0.3c0.32-0.22,0.04-0.04-0.04,0.02
			c-0.1,0.07-0.21,0.13-0.31,0.19c-0.17,0.1-0.34,0.19-0.52,0.28c-0.09,0.05-0.19,0.09-0.29,0.14c-0.08,0.04-0.16,0.07-0.23,0.11
			c-0.17,0.08-0.1,0.05,0.2-0.09c-0.2,0.02-0.45,0.17-0.64,0.23c-0.24,0.08-0.49,0.14-0.74,0.2c-0.05,0.01-0.4,0.1-0.42,0.08
			c-0.02-0.03,0.67-0.03,0.16-0.04c-0.25,0-0.6-0.06-0.84-0.01c0.04-0.01,0.61,0.12,0.23,0.03c-0.09-0.02-0.17-0.04-0.26-0.06
			c-0.09-0.02-0.17-0.06-0.26-0.08c-0.46-0.13,0.45,0.23,0.16,0.07c-0.16-0.09-0.32-0.16-0.47-0.26c-0.27-0.17-0.09-0.23,0.13,0.11
			c-0.05-0.08-0.17-0.15-0.24-0.22c-0.07-0.07-0.17-0.15-0.22-0.24c0.07,0.13,0.34,0.48,0.13,0.13c-0.15-0.25-0.03-0.3,0.05,0.19
			c-0.02-0.1-0.07-0.21-0.1-0.31c-0.13-0.51,0.05,0.1,0,0.1c0,0,0-0.39,0-0.42c-0.01-0.35-0.16,0.62-0.01,0.08
			c0.04-0.14,0.06-0.28,0.1-0.41c0.08-0.28,0.17-0.55,0.28-0.82c0.01-0.03,0.02-0.05,0.03-0.08c0.1-0.25,0.09-0.21-0.05,0.12
			c0-0.1,0.12-0.27,0.15-0.36c0.1-0.22,0.2-0.44,0.32-0.65c0.04-0.07,0.19-0.23,0.19-0.3c-0.07,0.09-0.14,0.19-0.21,0.28
			c0.06-0.07,0.13-0.14,0.2-0.2c0.95-0.91,0.98-2.64,0-3.54C35.69,170.3,34.18,170.27,33.17,171.24L33.17,171.24z"/>
	</g>
</g>
<g>
	<g>
		<path class="st3" d="M53.2,193.03c-1.33,4.34-2.29,8.78-3.62,13.12c-0.38,1.25,0.46,2.78,1.75,3.08c1.35,0.31,2.66-0.41,3.08-1.75
			c1.33-4.34,2.29-8.78,3.62-13.12c0.38-1.25-0.46-2.78-1.75-3.08C54.92,190.97,53.61,191.69,53.2,193.03L53.2,193.03z"/>
	</g>
</g>
<g>
	<g>
		<path class="st3" d="M42.54,181.42c0.96,0.52,1.87,1.13,2.78,1.73c1.32,0.87,2.61,1.76,3.89,2.68c0.5,0.36,1.36,0.41,1.93,0.25
			c0.58-0.16,1.21-0.61,1.49-1.15c0.31-0.58,0.46-1.28,0.25-1.93c-0.21-0.65-0.59-1.09-1.15-1.49c-1.28-0.92-2.57-1.82-3.89-2.68
			c-0.91-0.6-1.82-1.21-2.78-1.73c-1.15-0.62-2.78-0.32-3.42,0.9C41.02,179.17,41.31,180.76,42.54,181.42L42.54,181.42z"/>
	</g>
</g>
<g>
	<g>
		<path class="st3" d="M56.98,166.64c-0.24,2.19-0.45,4.39-0.71,6.59c-0.07,0.56-0.13,1.12-0.21,1.68c0.06-0.42-0.04,0.32-0.05,0.37
			c-0.04,0.26-0.07,0.51-0.11,0.77c-0.17,1.11-0.36,2.22-0.59,3.32c-0.26,1.28,0.37,2.76,1.75,3.08c1.25,0.28,2.79-0.38,3.08-1.75
			c0.95-4.63,1.33-9.36,1.85-14.05c0.14-1.3-1.25-2.56-2.5-2.5C58,164.21,57.13,165.24,56.98,166.64L56.98,166.64z"/>
	</g>
</g>
<g>
	<g>
		<path class="st3" d="M41.56,201.83c2.43-1.25,4.51-3.08,6.59-4.84c1.54-1.31,3.23-2.51,4.61-4c0.89-0.96,1.02-2.6,0-3.54
			c-0.96-0.89-2.59-1.03-3.54,0c-1.35,1.46-3,2.65-4.52,3.93c-0.4,0.33-0.78,0.68-1.18,1.01c-0.24,0.2-0.48,0.4-0.72,0.6
			c-0.15,0.12-0.29,0.24-0.44,0.35c-0.41,0.33,0.36-0.27-0.09,0.07c-1.04,0.77-2.09,1.51-3.24,2.1c-1.16,0.6-1.6,2.33-0.9,3.42
			C38.91,202.12,40.32,202.47,41.56,201.83L41.56,201.83z"/>
	</g>
</g>
<g>
	<g>
		<path class="st3" d="M57.72,193.07c1.92,0.99,3.87,1.9,5.77,2.92c1.77,0.96,3.62,1.74,5.24,2.97c0.48,0.36,1.37,0.4,1.93,0.25
			c0.58-0.16,1.21-0.61,1.49-1.15c0.7-1.32,0.22-2.57-0.9-3.42c-1.62-1.22-3.47-2.01-5.24-2.97c-1.9-1.03-3.85-1.94-5.77-2.92
			c-1.16-0.6-2.77-0.34-3.42,0.9C56.22,190.79,56.48,192.43,57.72,193.07L57.72,193.07z"/>
	</g>
</g>
<g>
	<g>
		<path class="st3" d="M61.32,187.61c3.33-0.62,6.81-1.41,9.77-3.14c1.13-0.66,1.63-2.29,0.9-3.42c-0.73-1.14-2.21-1.6-3.42-0.9
			c-0.31,0.18-0.63,0.35-0.95,0.51c-0.19,0.09-0.38,0.18-0.57,0.26c-0.29,0.13,0.5-0.2,0.2-0.09c-0.09,0.03-0.18,0.07-0.27,0.11
			c-0.76,0.3-1.55,0.55-2.33,0.78c-1.53,0.44-3.09,0.77-4.65,1.06c-1.29,0.24-2.14,1.87-1.75,3.08
			C58.69,187.25,59.93,187.87,61.32,187.61L61.32,187.61z"/>
	</g>
</g>
<g>
	<g>
		<path class="st3" d="M102.13,255.63c-1.32,1.2-1.76,3.28-2.07,4.97c-0.33,1.77-0.56,3.69,0.04,5.43c1.23,3.61,5.12,5.05,8.65,4.3
			c3.23-0.69,6.04-3.37,6.82-6.59c0.92-3.81-0.89-7.78-4.62-9.18c-1.3-0.49-2.87-0.66-4.24-0.67c-1.9-0.02-3.6,0.53-4.75,2.11
			c-0.77,1.06-0.22,2.83,0.9,3.42c1.3,0.69,2.6,0.24,3.42-0.9c-0.09,0.11-0.17,0.23-0.26,0.34c0.13-0.12,0.1-0.1-0.1,0.05
			c-0.4,0.27-0.06,0.05,0.02,0.01c0.23-0.12,0.1,0.06-0.28,0.11c0.07-0.01,0.16-0.05,0.23-0.07c0.11-0.03,0.27-0.03,0.37-0.08
			c-0.03,0.01-0.67,0.06-0.26,0.04c0.24-0.01,0.47-0.03,0.7-0.03c0.44,0,0.87,0.07,1.3,0.1c-0.84-0.04-0.05,0,0.15,0.04
			c0.2,0.04,0.41,0.08,0.61,0.12c0.24,0.05,0.46,0.12,0.69,0.18c0.28,0.08,0.05,0.16-0.14-0.06c0.04,0.05,0.22,0.11,0.29,0.15
			c0.12,0.07,0.23,0.15,0.35,0.22c0.29,0.18-0.43-0.42-0.06-0.03c0.08,0.08,0.16,0.15,0.24,0.23c0.08,0.08,0.15,0.16,0.22,0.24
			c-0.06-0.08-0.12-0.16-0.18-0.25c0.14,0.04,0.36,0.58,0.44,0.7c0.13,0.21-0.02,0.24-0.05-0.15c0.01,0.09,0.09,0.24,0.12,0.34
			c0.05,0.15,0.09,0.31,0.12,0.46c0.01,0.03,0.01,0.06,0.02,0.09c0.05,0.28,0.04,0.25-0.01-0.1c0.13,0.18,0.01,0.73,0,0.95
			c-0.03,0.61,0.1-0.37,0,0c-0.04,0.15-0.07,0.31-0.11,0.47c-0.03,0.12-0.08,0.24-0.11,0.37c-0.13,0.44,0.02,0.01,0.04-0.06
			c-0.07,0.26-0.28,0.55-0.42,0.78c-0.06,0.09-0.12,0.19-0.19,0.28c-0.31,0.46,0.37-0.38-0.02,0.02c-0.2,0.2-0.38,0.41-0.59,0.59
			c-0.07,0.07-0.2,0.14-0.26,0.22c0.26-0.33,0.29-0.21,0.1-0.09c-0.24,0.15-0.47,0.3-0.72,0.43c-0.08,0.04-0.25,0.09-0.3,0.15
			c0.32-0.13,0.39-0.16,0.21-0.09c-0.08,0.03-0.16,0.06-0.23,0.09c-0.26,0.09-0.53,0.17-0.8,0.23c-0.1,0.02-0.23,0.03-0.33,0.06
			c0.5-0.16,0.39-0.04,0.19-0.03c-0.27,0.01-0.53,0.02-0.79,0c-0.1-0.01-0.21-0.03-0.32-0.03c0.67,0.02,0.25,0.03,0.04-0.02
			c-0.1-0.02-0.2-0.05-0.31-0.08c-0.05-0.02-0.1-0.03-0.15-0.05c-0.2-0.07-0.2-0.07,0.01,0.02c0.05,0.02,0.1,0.04,0.15,0.07
			c-0.09-0.04-0.19-0.09-0.28-0.14c-0.09-0.05-0.18-0.1-0.27-0.15c-0.05-0.03-0.5-0.28-0.12-0.07c0.34,0.19-0.02-0.03-0.09-0.11
			c-0.06-0.06-0.14-0.18-0.21-0.23c0.21,0.29,0.26,0.35,0.16,0.2c-0.04-0.06-0.09-0.13-0.13-0.2c-0.03-0.04-0.16-0.25-0.17-0.32
			c0.13,0.32,0.15,0.35,0.06,0.09c-0.02-0.06-0.03-0.12-0.05-0.17c-0.01-0.05-0.2-0.59-0.06-0.2c0.02,0.21,0.02,0.2,0-0.03
			c-0.01-0.12-0.02-0.24-0.02-0.37c-0.01-0.31,0-0.62,0.03-0.92c0.01-0.12,0.02-0.25,0.03-0.37c0.05-0.54-0.08,0.43,0.02-0.12
			c0.14-0.77,0.3-1.54,0.52-2.3c0.03-0.1,0.27-0.93,0.3-0.92c0.02,0.01-0.27,0.53-0.02,0.08c0.3-0.53-0.29,0.27,0.06-0.05
			c0.97-0.88,0.96-2.65,0-3.54C104.63,254.68,103.16,254.69,102.13,255.63L102.13,255.63z"/>
	</g>
</g>
<g>
	<g>
		<path class="st3" d="M85.44,268.5c-1.41,0.34-2.53,1.61-3.26,2.79c-0.77,1.24-1.18,2.84-1.34,4.28c-0.17,1.43,0.31,2.97,0.93,4.25
			c0.51,1.05,1.41,1.7,2.47,2.09c1.28,0.47,2.75,0.66,4.06,0.21c1.28-0.43,2.51-1.21,3.37-2.26c1.86-2.29,2.59-5.38,1.15-8.09
			c-0.66-1.23-1.82-2.38-3.08-2.99c-1.53-0.74-3.39-1.02-4.9-0.03c-1.09,0.72-1.66,2.24-0.9,3.42c0.7,1.09,2.25,1.67,3.42,0.9
			c0.05-0.04,0.11-0.07,0.16-0.1c0.22-0.11,0.11-0.06-0.34,0.14c0.12-0.02,0.24-0.07,0.37-0.08c-0.22,0.03-0.44,0.06-0.66,0.09
			c0.2-0.02,0.39-0.02,0.58,0.01c-0.22-0.03-0.44-0.06-0.66-0.09c0.19,0.03,0.37,0.08,0.55,0.13c0.44,0.13-0.26-0.1-0.24-0.11
			c0.01-0.01,0.28,0.14,0.3,0.15c0.19,0.1,0.36,0.22,0.53,0.34c0.24,0.16-0.48-0.4-0.19-0.14c0.09,0.08,0.18,0.16,0.26,0.24
			c0.14,0.14,0.26,0.3,0.39,0.44c-0.47-0.48-0.25-0.33-0.12-0.13c0.06,0.1,0.12,0.19,0.18,0.29c0.04,0.08,0.08,0.17,0.13,0.25
			c0.14,0.26-0.21-0.61-0.11-0.24c0.06,0.22,0.12,0.44,0.15,0.67c-0.03-0.22-0.06-0.44-0.09-0.66c0.05,0.39,0.05,0.78,0.01,1.18
			c0.03-0.22,0.06-0.44,0.09-0.66c-0.03,0.24-0.08,0.47-0.14,0.7c-0.03,0.11-0.07,0.23-0.11,0.34c-0.07,0.21-0.27,0.48,0.07-0.15
			c-0.12,0.21-0.21,0.43-0.34,0.63c-0.06,0.1-0.14,0.2-0.2,0.3c0.38-0.6,0.23-0.29,0.09-0.13c-0.16,0.18-0.33,0.35-0.51,0.51
			c-0.17,0.15-0.47,0.24,0.13-0.09c-0.1,0.06-0.2,0.14-0.3,0.2c-0.1,0.06-0.21,0.12-0.31,0.18c-0.09,0.05-0.44,0.2-0.03,0.03
			c0.44-0.18-0.01,0-0.11,0.03c-0.18,0.06-0.36,0.09-0.54,0.12c0.22-0.03,0.44-0.06,0.66-0.09c-0.27,0.02-0.53,0.02-0.8,0
			c0.22,0.03,0.44,0.06,0.66,0.09c-0.42-0.06-0.81-0.18-1.21-0.31c-0.52-0.17,0.61,0.31,0.24,0.1c-0.46-0.26,0.51,0.5,0.17,0.15
			c-0.34-0.36,0.4,0.62,0.11,0.14c-0.04-0.07-0.08-0.14-0.11-0.22c-0.21-0.4,0.18,0.52,0.1,0.25c-0.16-0.54-0.36-1.07-0.45-1.63
			c0.03,0.22,0.06,0.44,0.09,0.66c-0.04-0.34-0.03-0.67,0.01-1.01c-0.03,0.22-0.06,0.44-0.09,0.66c0.08-0.53,0.22-1.05,0.39-1.55
			c0.08-0.24,0.17-0.47,0.25-0.7c0.18-0.48-0.02,0.16-0.11,0.24c0.05-0.04,0.1-0.2,0.14-0.26c0.09-0.16,0.2-0.32,0.31-0.47
			c0.23-0.33-0.33,0.39-0.13,0.17c0.07-0.07,0.13-0.15,0.2-0.23c0.08-0.09,0.16-0.17,0.25-0.25c0.08-0.07,0.37-0.3,0-0.01
			c-0.35,0.28-0.08,0.08,0,0.03c0.32-0.2-0.63,0.22-0.27,0.13c1.27-0.31,2.15-1.82,1.75-3.08C88.09,268.93,86.8,268.17,85.44,268.5
			L85.44,268.5z"/>
	</g>
</g>
<g>
	<g>
		<path class="st3" d="M86.07,244.83c-1.07,0.51-2.15,1.11-2.92,2.03c-1.11,1.33-1.67,2.85-1.81,4.57
			c-0.14,1.63,0.19,3.45,1.01,4.87c0.8,1.39,2.33,2.28,3.83,2.71c1.56,0.45,3,0,4.42-0.63c1.09-0.49,2.15-1.11,3.05-1.89
			c0.93-0.8,1.42-1.92,1.77-3.07c0.45-1.47,0.75-2.89,0.29-4.41c-0.51-1.71-1.75-3.35-3.32-4.23c-1.86-1.04-4.03-1.04-5.9-0.05
			c-1.16,0.61-1.61,2.32-0.9,3.42c0.76,1.18,2.18,1.55,3.42,0.9c0.49-0.26-0.41,0.1-0.07,0.01c0.13-0.03,0.26-0.07,0.38-0.11
			c0.43-0.13-0.16,0.07-0.2,0.02c0.03,0.03,0.32-0.01,0.38,0c0.03,0,0.05,0,0.08,0c0.27,0.03,0.2,0.02-0.22-0.03
			c0.03,0.03,0.28,0.07,0.29,0.07c0.08,0.02,0.51,0.21,0.12,0.02c-0.4-0.2,0.08,0.05,0.16,0.1c0.08,0.05,0.21,0.18,0.3,0.19
			c-0.07-0.01-0.47-0.42-0.17-0.12c0.18,0.18,0.36,0.36,0.54,0.55c0.23,0.25-0.13,0.02-0.11-0.15c-0.01,0.06,0.17,0.25,0.21,0.31
			c0.06,0.11,0.12,0.22,0.18,0.32c0.23,0.4-0.15-0.53-0.03-0.06c0.02,0.09,0.06,0.18,0.08,0.28c0.02,0.09,0.08,0.55,0.04,0.09
			c-0.04-0.47-0.01,0.27-0.01,0.39c-0.01,0.43,0-0.19,0.03-0.22c-0.05,0.04-0.09,0.37-0.11,0.45c-0.07,0.22-0.14,0.44-0.21,0.67
			c-0.1,0.32-0.21,0.64-0.32,0.96c0.27-0.81,0.11-0.29-0.01-0.07c-0.02,0.04-0.09,0.11-0.11,0.16c0.17-0.5,0.35-0.42,0.13-0.19
			c-0.19,0.2-0.66,0.45-0.03,0.07c-0.16,0.1-0.32,0.22-0.48,0.32c-0.35,0.22-0.71,0.42-1.08,0.61c-0.19,0.1-0.37,0.18-0.56,0.28
			c-0.45,0.22,0.46-0.18,0.15-0.06c-0.11,0.04-0.21,0.08-0.32,0.12c-0.19,0.06-0.37,0.11-0.56,0.16c-0.26,0.08-0.37-0.07,0.25-0.02
			c-0.04,0-0.32,0-0.33,0.01c0.02-0.03,0.72,0.15,0.35,0.04c-0.1-0.03-0.2-0.05-0.3-0.08c-0.11-0.03-0.21-0.07-0.32-0.11
			c-0.25-0.08-0.06-0.16,0.21,0.09c-0.15-0.14-0.46-0.23-0.63-0.34c-0.08-0.05-0.15-0.11-0.23-0.16c0.52,0.31,0.29,0.21,0.11,0.05
			c-0.33-0.3,0.28,0.48,0.13,0.15c-0.03-0.07-0.23-0.31-0.2-0.38c0-0.01,0.2,0.6,0.06,0.12c-0.03-0.11-0.07-0.22-0.1-0.33
			c-0.05-0.17-0.07-0.34-0.11-0.51c-0.05-0.2,0.04-0.36,0.01,0.15c0.01-0.27-0.05-0.55-0.05-0.82c0-0.16,0-0.33,0.01-0.49
			c0-0.05,0.01-0.11,0.01-0.16c0.03-0.28,0.02-0.22-0.03,0.18c0.06-0.03,0.16-0.67,0.19-0.79c0.14-0.52-0.21,0.38-0.04,0.07
			c0.07-0.14,0.14-0.28,0.22-0.41c0.15-0.25,0.59-0.68,0.02-0.08c0.12-0.13,0.23-0.26,0.36-0.38c0.03-0.03,0.2-0.22,0.24-0.21
			c-0.08-0.01-0.57,0.41-0.13,0.12c0.46-0.3,0.95-0.54,1.44-0.77c1.18-0.56,1.59-2.35,0.9-3.42
			C88.71,244.51,87.34,244.23,86.07,244.83L86.07,244.83z"/>
	</g>
</g>
<g>
	<g>
		<path class="st3" d="M107.87,231.17c-1.3,0.95-2.19,2.25-2.87,3.69c-0.73,1.54-1.28,3.13-1.3,4.86c-0.01,1.79,0.61,3.66,2.01,4.84
			c1.35,1.14,3.03,1.67,4.78,1.74c3.29,0.14,6.74-1.49,8.49-4.31c0.87-1.4,1.31-3.17,1.14-4.82c-0.2-1.9-1.06-3.43-2.29-4.85
			c-1.27-1.46-2.95-2.38-4.89-2.51c-1.57-0.1-3.45,0.31-4.76,1.2c-1.08,0.73-1.66,2.23-0.9,3.42c0.69,1.07,2.26,1.68,3.42,0.9
			c0.16-0.11,0.4-0.19,0.54-0.31c-0.32,0.27-0.45,0.17-0.21,0.09c0.12-0.04,0.23-0.08,0.35-0.12c0.22-0.07,0.45-0.11,0.67-0.16
			c0.42-0.09-0.14,0.03-0.2,0.02c0.15,0.03,0.39-0.04,0.55-0.04c0.23-0.01,0.46,0.03,0.68,0.02c-0.55,0.03-0.44-0.08-0.24-0.03
			c0.08,0.02,0.32,0.12,0.4,0.11c-0.04,0.01-0.56-0.29-0.24-0.1c0.1,0.06,0.2,0.11,0.3,0.17c0.12,0.07,0.23,0.16,0.35,0.23
			c0.15,0.11,0.09,0.06-0.18-0.14c0.06,0.05,0.13,0.1,0.19,0.16c0.18,0.16,0.35,0.33,0.52,0.51c0.09,0.1,0.18,0.21,0.27,0.31
			c0.24,0.27-0.35-0.51-0.04-0.04c0.14,0.21,0.3,0.42,0.43,0.64c0.02,0.04,0.22,0.35,0.2,0.37c-0.04-0.1-0.08-0.19-0.12-0.29
			c0.04,0.1,0.08,0.21,0.11,0.31c0.02,0.07,0.15,0.65,0.15,0.65c-0.02-0.11-0.03-0.22-0.05-0.33c0.01,0.11,0.02,0.22,0.02,0.33
			c0,0.11,0,0.22,0,0.34c0-0.03-0.02,0.34-0.02,0.34c-0.01,0,0.11-0.61,0-0.08c-0.06,0.28-0.24,0.61-0.26,0.89
			c0.03-0.38,0.17-0.35,0.05-0.13c-0.07,0.12-0.13,0.25-0.2,0.37c-0.04,0.06-0.17,0.34-0.23,0.35c0,0,0.41-0.46,0.07-0.1
			c-0.2,0.21-0.4,0.41-0.61,0.61c-0.17,0.17-0.24,0.05,0.1-0.07c-0.13,0.04-0.31,0.22-0.43,0.29c-0.25,0.15-0.5,0.28-0.76,0.41
			c-0.25,0.13-0.17-0.06,0.12-0.05c-0.07,0-0.25,0.09-0.33,0.12c-0.27,0.09-0.55,0.17-0.84,0.23c-0.11,0.03-0.23,0.04-0.34,0.07
			c-0.54,0.12,0.49-0.02-0.02,0c-0.27,0.01-0.54,0.04-0.81,0.03c-0.1,0-0.21-0.01-0.31-0.01c-0.07,0-0.59-0.03-0.13-0.01
			c0.44,0.03-0.05-0.02-0.13-0.04c-0.1-0.02-0.2-0.05-0.3-0.07c-0.1-0.03-0.2-0.06-0.3-0.09c-0.47-0.12,0.51,0.26-0.04-0.01
			c-0.2-0.1-0.38-0.24-0.57-0.35c0.5,0.28,0.29,0.25,0.17,0.11c-0.07-0.08-0.29-0.42-0.1-0.07c0.2,0.37-0.01-0.05-0.06-0.11
			c-0.27-0.37,0.07,0.18,0.05,0.17c-0.07-0.04-0.11-0.34-0.14-0.42c-0.03-0.1-0.08-0.67-0.07-0.28c0.01,0.43,0-0.17,0-0.21
			c0-0.18,0.01-0.37,0.01-0.55c0.01-0.47-0.03,0.05-0.03,0.11c-0.01-0.17,0.06-0.37,0.1-0.54c0.08-0.35,0.18-0.7,0.31-1.03
			c0.03-0.09,0.07-0.17,0.1-0.25c0.19-0.49-0.25,0.55-0.02,0.04c0.26-0.56,0.53-1.11,0.86-1.63c0.06-0.09,0.12-0.19,0.18-0.28
			c0.05-0.07,0.09-0.13,0.14-0.2c0.11-0.15,0.06-0.09-0.15,0.19c0.01,0,1.07-0.92,0.18-0.28c1.05-0.77,1.68-2.21,0.9-3.42
			C110.62,231.03,109,230.35,107.87,231.17L107.87,231.17z"/>
	</g>
</g>
<g>
	<g>
		<path class="st3" d="M126.27,247.04c-3.95,0.34-7.23,3.19-8.06,7.11c-0.83,3.89,0.55,8.07,4.4,9.7c3.61,1.52,7.91,0.19,10.58-2.54
			c2.62-2.69,3.57-6.86,1.81-10.27c-0.87-1.69-2.39-2.93-4.13-3.63c-1.84-0.74-3.87-0.64-5.77-0.21c-1.28,0.29-2.15,1.83-1.75,3.08
			c0.43,1.34,1.71,2.06,3.08,1.75c0.18-0.04,0.38-0.07,0.56-0.12c0.38-0.1-0.39,0.03-0.02,0c0.3-0.02,0.6-0.05,0.9-0.05
			c0.21,0,0.55-0.05,0.74,0.04c-0.34-0.17-0.38-0.07-0.15-0.01c0.16,0.04,0.33,0.07,0.49,0.12c0.1,0.03,0.2,0.07,0.31,0.1
			c0.5,0.16-0.37-0.22-0.09-0.04c0.19,0.12,0.4,0.21,0.59,0.34c0.06,0.04,0.18,0.15,0.24,0.17c-0.06-0.02-0.45-0.39-0.17-0.11
			c0.17,0.17,0.35,0.33,0.51,0.51c0.32,0.35,0.04,0.06-0.01-0.02c0.07,0.11,0.15,0.22,0.22,0.34c0.08,0.14,0.15,0.29,0.23,0.43
			c0.16,0.31-0.1-0.4-0.04-0.06c0.01,0.04,0.26,0.82,0.21,0.84c-0.03,0.01-0.03-0.65-0.03-0.09c0,0.2,0.01,0.39,0,0.59
			c0,0.08,0.01,0.34-0.03,0.4c0.14-0.21,0.06-0.35,0-0.06c-0.07,0.3-0.13,0.59-0.23,0.88c-0.05,0.16-0.1,0.55,0.01,0.02
			c-0.02,0.1-0.12,0.26-0.17,0.34c-0.06,0.12-0.36,0.79-0.5,0.81c0.01,0,0.39-0.45,0.04-0.05c-0.08,0.1-0.17,0.19-0.25,0.29
			c-0.2,0.21-0.4,0.41-0.62,0.6c-0.06,0.05-0.39,0.31-0.12,0.11c0.31-0.24-0.2,0.13-0.21,0.14c-0.27,0.18-0.54,0.34-0.83,0.49
			c-0.14,0.07-0.27,0.14-0.41,0.2c0.1-0.05,0.41-0.14-0.04,0c-0.29,0.1-0.58,0.19-0.88,0.26c0.01,0-0.72,0.11-0.34,0.07
			c0.31-0.03-0.16,0-0.24,0.01c-0.19,0.01-0.38-0.01-0.57,0c-0.51,0.02,0.2,0.07-0.05,0.01c-0.29-0.07-0.57-0.13-0.86-0.22
			c-0.27-0.08-0.19,0.05,0.05,0.03c-0.06,0-0.28-0.14-0.35-0.18c-0.11-0.06-0.22-0.14-0.34-0.2c-0.51-0.29,0.2,0.23-0.04-0.03
			c-0.11-0.12-0.23-0.23-0.35-0.34c-0.32-0.3,0.09,0.2-0.03-0.04c-0.07-0.14-0.47-0.92-0.25-0.36c-0.1-0.25-0.18-0.5-0.24-0.76
			c-0.03-0.13-0.05-0.26-0.08-0.39c-0.14-0.61-0.01,0.35,0-0.03c0-0.34-0.03-0.68-0.01-1.02c0-0.08,0.04-0.53,0.01-0.2
			c-0.03,0.34,0.07-0.33,0.08-0.4c0.08-0.35,0.2-0.68,0.31-1.02c0.12-0.35-0.19,0.32,0,0.01c0.11-0.18,0.19-0.38,0.3-0.56
			c0.07-0.12,0.16-0.23,0.23-0.36c0.1-0.14,0.08-0.12-0.07,0.08c0.06-0.08,0.13-0.15,0.19-0.22c0.09-0.1,0.18-0.19,0.27-0.28
			c0.05-0.05,0.53-0.47,0.27-0.25c-0.25,0.21,0.08-0.05,0.14-0.09c0.16-0.11,0.33-0.21,0.5-0.3c0.07-0.04,0.44-0.24,0.14-0.09
			c-0.31,0.16,0.26-0.09,0.34-0.11c0.12-0.04,0.25-0.07,0.38-0.1c0.66-0.15-0.32,0,0.2-0.04c1.3-0.11,2.56-1.07,2.5-2.5
			C128.71,248.28,127.66,246.92,126.27,247.04L126.27,247.04z"/>
	</g>
</g>
<g>
	<g>
		<path class="st3" d="M119.23,269.11c-2.38,1.96-3.76,5.09-3.77,8.16c-0.01,1.85,0.54,3.43,1.75,4.83c1.22,1.41,2.94,2.31,4.8,2.42
			c3.32,0.2,6.42-2.22,8.22-4.8c1-1.43,1.6-3.11,1.55-4.87c-0.04-1.63-0.35-3.46-1.32-4.81c-1.08-1.5-2.69-2.6-4.54-2.9
			c-1.05-0.17-1.97-0.24-3.02-0.07c-0.89,0.15-1.74,0.58-2.5,1.05c-1.11,0.69-1.64,2.26-0.9,3.42c0.72,1.11,2.23,1.64,3.42,0.9
			c0.22-0.14,0.46-0.26,0.69-0.4c0.48-0.29-0.37,0.08-0.05,0.02c0.1-0.02,0.2-0.06,0.3-0.09c0.12-0.04,0.43-0.04,0.04-0.03
			c-0.41,0.01-0.05,0.01,0.05,0.01c0.15,0,0.63-0.07,0.74,0.03c-0.1-0.01-0.2-0.03-0.3-0.04c0.1,0.01,0.2,0.03,0.3,0.05
			c0.12,0.02,0.23,0.04,0.35,0.07c0.09,0.02,0.78,0.25,0.42,0.11c-0.35-0.14,0.3,0.17,0.38,0.23c0.02,0.02,0.05,0.03,0.07,0.05
			c0.22,0.15,0.19,0.13-0.09-0.09c0.09,0.01,0.26,0.23,0.31,0.29c0.08,0.08,0.15,0.17,0.23,0.25c0.23,0.23-0.24-0.39-0.08-0.1
			c0.05,0.1,0.12,0.19,0.18,0.29c0.05,0.09,0.16,0.42,0.06,0.08c-0.12-0.41,0.03,0.14,0.04,0.18c0.03,0.12,0.06,0.25,0.08,0.38
			c0.03,0.14,0.05,0.28,0.08,0.43c0.09,0.48,0-0.22,0.02,0.08c0.02,0.28,0.05,0.56,0.04,0.85c0,0.16,0.02,0.37-0.03,0.52
			c0.03-0.08,0.13-0.51-0.01-0.04c-0.04,0.14-0.08,0.27-0.11,0.41c-0.06,0.2,0,0.35,0.02-0.03c-0.01,0.23-0.32,0.62-0.44,0.81
			c-0.03,0.05-0.37,0.63-0.41,0.61c-0.01,0,0.39-0.47,0.05-0.07c-0.08,0.09-0.16,0.19-0.24,0.28c-0.16,0.18-0.34,0.36-0.51,0.53
			c-0.09,0.08-0.18,0.17-0.27,0.25c-0.1,0.09-0.48,0.51-0.07,0.07c-0.31,0.33-0.85,0.58-1.25,0.78c-0.06,0.03-0.25,0.15-0.33,0.16
			c0.4-0.04,0.24-0.09,0.05-0.03c-0.13,0.04-0.25,0.09-0.38,0.12c-0.14,0.04-0.69,0.27-0.09,0.06c-0.09,0.03-0.72-0.04-0.75,0.01
			c0.06-0.09,0.5,0.11,0.11,0.01c-0.12-0.03-0.24-0.07-0.36-0.1c-0.52-0.14,0.09,0.02,0.07,0.03c-0.02,0.02-0.29-0.17-0.34-0.19
			c-0.41-0.23-0.04,0.01,0.03,0.05c-0.15-0.08-0.29-0.24-0.41-0.36c-0.16-0.15-0.39-0.34-0.49-0.53c0.36,0.71-0.09-0.27-0.1-0.24
			c0,0.01,0.14,0.49,0.05,0.11c-0.04-0.14-0.07-0.29-0.11-0.43c-0.09-0.34,0.03,0.48,0.02,0.13c0-0.15-0.02-0.3-0.03-0.45
			c-0.01-0.3,0.01-0.6,0.02-0.9c0.01-0.22,0.13-0.28-0.03,0.13c0.06-0.15,0.06-0.38,0.1-0.53c0.06-0.26,0.13-0.53,0.21-0.78
			c0.04-0.11,0.08-0.23,0.12-0.34c0.13-0.34,0-0.24-0.01,0.01c0.01-0.23,0.3-0.6,0.42-0.8c0.06-0.11,0.52-0.67,0.5-0.75
			c0.01,0.04-0.39,0.44-0.05,0.08c0.12-0.13,0.24-0.27,0.37-0.4c0.21-0.21,0.44-0.41,0.67-0.61c1.01-0.83,0.93-2.68,0-3.54
			C121.69,268.12,120.31,268.22,119.23,269.11L119.23,269.11z"/>
	</g>
</g>
<g>
	<g>
		<path class="st3" d="M101.63,281.15c-1.72,0.45-3.4,1.34-4.52,2.76c-1.3,1.65-1.92,3.65-1.94,5.75c-0.02,1.66,0.36,3.48,1.29,4.88
			c1.13,1.72,2.77,2.66,4.8,2.88c3.37,0.37,6.37-1.23,8.84-3.36c1.15-0.99,2.06-2.02,2.59-3.46c0.68-1.86,0.72-3.94-0.19-5.72
			c-0.92-1.82-2.81-3.45-4.8-3.97c-1.86-0.49-3.92-0.28-5.76,0.21c-1.26,0.34-2.16,1.8-1.75,3.08c0.42,1.3,1.72,2.11,3.08,1.75
			c0.28-0.08,0.57-0.14,0.85-0.2c0.05-0.01,0.36-0.05,0.37-0.06c-0.03,0.07-0.49,0.05-0.1,0.01c0.29-0.03,0.58-0.05,0.87-0.05
			c0.16,0,0.32,0,0.48,0c0.17,0.01,0.74-0.04,0.09-0.02c0.24-0.01,0.48,0.11,0.71,0.16c0.52,0.1-0.29-0.21-0.04-0.03
			c0.09,0.06,0.2,0.11,0.3,0.17c0.14,0.08,0.27,0.18,0.41,0.27c-0.08-0.05-0.37-0.33-0.03-0.01c0.25,0.23,0.49,0.47,0.72,0.73
			c-0.33-0.38-0.05-0.05,0.03,0.07c0.09,0.14,0.16,0.29,0.25,0.43c-0.35-0.62,0.15,0.31,0.06,0.31c-0.17,0.01,0.03-0.51-0.04-0.1
			c-0.03,0.17-0.03,0.36-0.04,0.53c-0.03,0.42,0.13-0.56-0.01,0.06c-0.04,0.18-0.07,0.36-0.12,0.53c-0.03,0.11-0.07,0.21-0.09,0.32
			c-0.1,0.4,0.04-0.12,0.09-0.17c-0.11,0.13-0.21,0.39-0.29,0.54c-0.25,0.46,0.4-0.39-0.03,0.04c-0.15,0.15-0.29,0.3-0.44,0.44
			c-0.41,0.38-0.83,0.73-1.26,1.09c-0.37,0.31,0.11-0.1,0.12-0.09c0,0-0.29,0.21-0.32,0.23c-0.25,0.17-0.5,0.33-0.77,0.48
			c-0.22,0.13-0.44,0.25-0.67,0.36c-0.13,0.07-0.26,0.13-0.38,0.19c-0.47,0.26,0.4-0.12,0.06-0.03c-0.27,0.07-0.52,0.17-0.79,0.23
			c-0.13,0.03-0.25,0.05-0.38,0.07c-0.57,0.12,0.42-0.02-0.11,0.01c-0.29,0.01-0.58,0.03-0.87,0.02c-0.1,0-0.39,0.03-0.47-0.03
			c0.01,0.01,0.61,0.13,0.14,0.01c-0.1-0.03-0.22-0.06-0.33-0.08c-0.47-0.07,0.27,0.22,0.05,0.04c-0.04-0.03-0.37-0.16-0.37-0.21
			c0,0.03,0.41,0.41,0.05,0.02c-0.05-0.05-0.3-0.24-0.29-0.31c0-0.02,0.34,0.53,0.09,0.1c-0.06-0.1-0.12-0.2-0.18-0.3
			c-0.02-0.04-0.31-0.53-0.1-0.17c0.2,0.34-0.04-0.13-0.07-0.2c-0.04-0.11-0.07-0.23-0.1-0.34c-0.03-0.12-0.06-0.23-0.08-0.35
			c-0.02-0.09-0.04-0.18-0.05-0.26c-0.03-0.19-0.02-0.12,0.03,0.22c0.05-0.28-0.05-0.66-0.04-0.96c0-0.18,0.01-0.36,0.02-0.54
			c0.01-0.11,0.02-0.22,0.03-0.32c-0.04,0.27-0.04,0.32-0.01,0.13c0.09-0.33,0.2-0.7,0.27-1.04c0.08-0.37-0.27,0.47,0.04-0.09
			c0.1-0.19,0.22-0.37,0.31-0.56c0.12-0.25,0.2-0.06-0.08,0.07c0.09-0.04,0.28-0.32,0.35-0.4c0.08-0.08,0.17-0.16,0.26-0.24
			c0.38-0.37-0.36,0.21,0.07-0.04c0.24-0.14,0.54-0.4,0.81-0.45c-0.51,0.08-0.14,0.06,0.03,0c0.22-0.08,0.45-0.14,0.68-0.2
			c1.27-0.33,2.16-1.8,1.75-3.08C104.28,281.59,102.98,280.79,101.63,281.15L101.63,281.15z"/>
	</g>
</g>
<g>
	<g>
		<path class="st3" d="M104.19,268.85c-0.44,4.15-0.87,8.3-1.31,12.45c-0.14,1.3,1.25,2.56,2.5,2.5c1.47-0.07,2.35-1.1,2.5-2.5
			c0.44-4.15,0.87-8.3,1.31-12.45c0.14-1.3-1.25-2.56-2.5-2.5C105.22,266.42,104.34,267.45,104.19,268.85L104.19,268.85z"/>
	</g>
</g>
<g>
	<g>
		<path class="st3" d="M111.43,267.32c2,2.19,4.38,4.08,6.96,5.53c1.14,0.64,2.78,0.31,3.42-0.9c0.62-1.18,0.32-2.74-0.9-3.42
			c-1.11-0.62-2.17-1.33-3.17-2.1c0.17,0.13,0.34,0.26,0.51,0.39c-1.18-0.92-2.28-1.93-3.29-3.04c-0.88-0.97-2.65-0.96-3.54,0
			C110.48,264.82,110.48,266.28,111.43,267.32L111.43,267.32z"/>
	</g>
</g>
<g>
	<g>
		<path class="st3" d="M116.19,262c1.14-0.48,2.28-0.96,3.43-1.44c0.33-0.08,0.61-0.23,0.85-0.45c0.27-0.18,0.49-0.41,0.64-0.7
			c0.18-0.29,0.28-0.6,0.3-0.93c0.07-0.33,0.06-0.66-0.04-1c-0.2-0.6-0.57-1.19-1.15-1.49c-0.2-0.08-0.4-0.17-0.6-0.25
			c-0.44-0.12-0.89-0.12-1.33,0c-1.14,0.48-2.28,0.96-3.43,1.44c-0.33,0.08-0.61,0.23-0.85,0.45c-0.27,0.18-0.49,0.41-0.64,0.7
			c-0.18,0.29-0.28,0.6-0.3,0.93c-0.07,0.33-0.06,0.66,0.04,1c0.2,0.6,0.57,1.19,1.15,1.49c0.2,0.08,0.4,0.17,0.6,0.25
			C115.3,262.11,115.74,262.11,116.19,262L116.19,262z"/>
	</g>
</g>
<g>
	<g>
		<path class="st3" d="M107.66,243.8c0.27,3.7,0.04,7.48-0.29,11.17c-0.12,1.31,1.23,2.56,2.5,2.5c1.45-0.07,2.38-1.1,2.5-2.5
			c0.33-3.69,0.56-7.47,0.29-11.17c-0.1-1.3-1.08-2.56-2.5-2.5C108.88,241.36,107.55,242.41,107.66,243.8L107.66,243.8z"/>
	</g>
</g>
<g>
	<g>
		<path class="st3" d="M92.54,255.33c2.26,1.98,4.85,3.65,7.54,4.97c0.61,0.3,1.25,0.44,1.93,0.25c0.58-0.16,1.21-0.61,1.49-1.15
			c0.59-1.12,0.36-2.81-0.9-3.42c-2.08-1.02-4.08-2.25-5.92-3.66c0.17,0.13,0.34,0.26,0.51,0.39c-0.38-0.3-0.75-0.6-1.11-0.92
			c-0.5-0.44-1.08-0.73-1.77-0.73c-0.61,0-1.35,0.27-1.77,0.73C91.67,252.74,91.49,254.41,92.54,255.33L92.54,255.33z"/>
	</g>
</g>
<g>
	<g>
		<path class="st3" d="M92.73,276.28c0.2-0.16,0.4-0.33,0.6-0.48c0.09-0.07,0.18-0.14,0.27-0.21c0.27-0.21-0.37,0.28-0.09,0.07
			c0.4-0.3,0.81-0.6,1.22-0.9c0.86-0.62,1.73-1.21,2.62-1.79c1.66-1.1,3.35-2.15,5.02-3.23c1.1-0.71,1.65-2.25,0.9-3.42
			c-0.71-1.1-2.25-1.66-3.42-0.9c-3.62,2.34-7.31,4.58-10.65,7.33c-1.01,0.84-0.93,2.68,0,3.54
			C90.27,277.26,91.65,277.17,92.73,276.28L92.73,276.28z"/>
	</g>
</g>
<g>
	<g>
		<path class="st3" d="M267.81,169.1c-2.89,0.75-4.3,3.53-4.89,6.23c-0.31,1.39-0.47,2.93-0.02,4.31c0.58,1.8,1.88,3.05,3.62,3.72
			c2.69,1.04,5.96,0.12,7.93-1.92c2.25-2.32,2.67-5.76,1.36-8.66c-0.58-1.29-1.67-2.55-2.91-3.25c-1.49-0.84-3.12-0.87-4.76-0.55
			c-1.29,0.25-2.14,1.86-1.75,3.08c0.44,1.37,1.7,2.02,3.08,1.75c0.08-0.02,0.57-0.08,0.1-0.03c-0.41,0.05-0.09,0.01,0.01,0.01
			c0.2-0.01,0.39-0.01,0.59-0.01c0.2,0,0.36,0.13-0.3-0.05c0.07,0.02,0.16,0.03,0.23,0.04c0.08,0.02,0.15,0.04,0.23,0.06
			c0.5,0.15-0.08-0.11-0.16-0.08c0.09-0.03,0.38,0.22,0.46,0.26c0.27,0.15-0.5-0.44-0.16-0.13c0.06,0.06,0.13,0.11,0.19,0.17
			c0.13,0.13,0.25,0.26,0.37,0.39c0.27,0.29-0.11-0.12-0.12-0.17c0.03,0.11,0.19,0.26,0.25,0.37c0.07,0.1,0.13,0.21,0.18,0.32
			c0.05,0.1,0.15,0.4,0.03,0.04c-0.14-0.42,0.09,0.29,0.12,0.4c0.05,0.18,0.05,0.41,0.12,0.58c-0.18-0.45-0.04-0.46-0.04-0.22
			c0,0.15,0.01,0.3,0.01,0.45c0,0.12-0.02,0.25-0.02,0.37c-0.01,0.33,0.1-0.54,0.04-0.22c-0.04,0.22-0.09,0.43-0.15,0.65
			c-0.03,0.09-0.06,0.19-0.09,0.28c-0.13,0.39,0.05-0.15,0.08-0.19c-0.14,0.16-0.25,0.45-0.36,0.64c-0.25,0.43,0.31-0.34,0.09-0.1
			c-0.07,0.07-0.13,0.15-0.19,0.22c-0.14,0.15-0.34,0.28-0.47,0.44c0.03-0.04,0.5-0.35,0.16-0.13c-0.08,0.05-0.16,0.11-0.24,0.16
			c-0.2,0.12-0.46,0.2-0.64,0.34c0.37-0.3,0.4-0.16,0.13-0.07c-0.09,0.03-0.18,0.06-0.28,0.09c-0.12,0.03-0.23,0.05-0.35,0.09
			c-0.21,0.06-0.32-0.05,0.24-0.02c-0.19-0.01-0.39,0.03-0.58,0.04c-0.1,0-0.19-0.01-0.29-0.01c-0.5,0.01,0.55,0.12,0.08,0.02
			c-0.22-0.05-0.44-0.12-0.66-0.17c-0.32-0.09,0.55,0.31,0.11,0.05c-0.08-0.05-0.18-0.1-0.26-0.15c-0.18-0.1-0.21-0.25,0.14,0.13
			c-0.06-0.07-0.15-0.13-0.22-0.2c-0.01-0.01-0.17-0.21-0.2-0.22c0.23,0.31,0.28,0.36,0.13,0.14c-0.02-0.04-0.05-0.09-0.07-0.13
			c-0.22-0.34,0.09,0.13,0.07,0.2c0.02-0.07-0.09-0.27-0.11-0.35c-0.03-0.11-0.03-0.26-0.07-0.36c0.03,0.06,0.04,0.63,0.04,0.22
			c0-0.2-0.01-0.4,0-0.6c0.01-0.1,0.02-0.2,0.02-0.3c0.03-0.52-0.1,0.53,0,0.05c0.1-0.5,0.21-0.99,0.36-1.48
			c0.07-0.23,0.15-0.45,0.22-0.67c0.16-0.47-0.21,0.45-0.07,0.14c0.05-0.1,0.1-0.21,0.15-0.31c0.11-0.22,0.25-0.43,0.38-0.64
			c0.16-0.26-0.37,0.39-0.15,0.19c0.09-0.08,0.18-0.19,0.27-0.29c0.07-0.08,0.32-0.25-0.01-0.02c-0.37,0.26,0.04-0.01,0.12-0.06
			c0.1-0.06,0.37-0.15,0-0.02c-0.45,0.16,0.13-0.03,0.22-0.05c1.27-0.33,2.16-1.8,1.75-3.08
			C270.47,169.55,269.17,168.75,267.81,169.1L267.81,169.1z"/>
	</g>
</g>
<g>
	<g>
		<path class="st3" d="M244.33,186.23c-1.65,0.34-2.92,1.22-4.14,2.34c-1.16,1.08-2.04,2.45-2.3,4.03
			c-0.59,3.51,1.04,7.12,4.38,8.61c3.41,1.52,7.17,1.01,10.06-1.36c2.74-2.25,3.76-6.13,2.39-9.4c-0.86-2.05-2.42-3.48-4.5-4.26
			C248.36,185.5,246.19,185.63,244.33,186.23c-1.24,0.41-2.18,1.75-1.75,3.08c0.4,1.24,1.74,2.18,3.08,1.75
			c0.25-0.08,0.51-0.16,0.77-0.22c0.03-0.01,0.49-0.1,0.49-0.1c0,0.02-0.66,0.06-0.16,0.02c0.29-0.02,0.57-0.04,0.86-0.03
			c0.12,0,0.43-0.03,0.53,0.04c-0.1-0.01-0.21-0.03-0.31-0.04c0.12,0.02,0.24,0.04,0.35,0.07c0.15,0.04,0.3,0.08,0.44,0.13
			c0.03,0.01,0.06,0.02,0.09,0.03c0.26,0.1,0.23,0.08-0.07-0.04c0.08-0.04,0.82,0.44,0.82,0.47c0,0-0.41-0.36-0.13-0.1
			c0.11,0.11,0.23,0.21,0.34,0.33c-0.01-0.02,0.2,0.24,0.21,0.23c-0.23-0.3-0.26-0.35-0.11-0.13c0.04,0.06,0.09,0.13,0.13,0.2
			c0.07,0.11,0.13,0.23,0.19,0.34c0.02,0.05,0.05,0.09,0.07,0.14c0.09,0.19,0.09,0.19,0-0.01c-0.02-0.05-0.04-0.1-0.07-0.15
			c0.04,0.1,0.07,0.2,0.1,0.3c0.04,0.13,0.07,0.25,0.1,0.38c0.02,0.08,0.03,0.34,0.08,0.39c-0.16-0.16-0.06-0.55-0.03-0.11
			c0.02,0.28-0.04,0.59-0.01,0.87c0.02-0.12,0.03-0.23,0.05-0.35c-0.02,0.1-0.03,0.21-0.06,0.31c-0.02,0.1-0.05,0.21-0.08,0.31
			c-0.01,0.04-0.13,0.47-0.16,0.47c-0.02,0,0.29-0.57,0.06-0.14c-0.13,0.24-0.25,0.48-0.41,0.72c-0.06,0.09-0.38,0.38-0.1,0.15
			c0.31-0.25-0.18,0.18-0.24,0.25c-0.11,0.12-0.46,0.56-0.61,0.56c0.09,0,0.41-0.28,0.11-0.09c-0.14,0.09-0.28,0.19-0.42,0.27
			c-0.12,0.07-0.62,0.43-0.74,0.38c-0.01,0,0.6-0.21,0.13-0.07c-0.19,0.06-0.37,0.12-0.55,0.17c-0.15,0.04-0.61,0.04-0.72,0.15
			c0.11-0.02,0.23-0.03,0.34-0.05c-0.11,0.01-0.22,0.02-0.32,0.02c-0.11,0.01-0.22,0.01-0.33,0.01c-0.13,0-0.73-0.12-0.81-0.04
			c0.11,0.02,0.23,0.03,0.34,0.05c-0.11-0.02-0.21-0.04-0.32-0.06c-0.16-0.03-0.32-0.07-0.47-0.12c-0.13-0.04-0.26-0.08-0.39-0.12
			c-0.49-0.17,0.08,0,0.07,0.04c0,0.01-0.67-0.35-0.71-0.38c-0.11-0.07-0.22-0.15-0.33-0.22c-0.29-0.19,0.46,0.41,0.07,0.04
			c-0.08-0.07-0.16-0.14-0.23-0.22c-0.08-0.08-0.15-0.15-0.22-0.23c-0.17-0.21-0.14-0.16,0.09,0.14c0.02-0.1-0.34-0.54-0.4-0.65
			c-0.05-0.09-0.08-0.19-0.13-0.27c0.3,0.53,0.13,0.3,0.06,0.1c-0.08-0.24-0.13-0.49-0.19-0.74c-0.08-0.34,0.04,0.66,0.02,0.13
			c0-0.15-0.02-0.3-0.02-0.46c0-0.15,0.01-0.3,0.02-0.46c0.02-0.52-0.14,0.57,0,0.07c0.07-0.25,0.24-0.61,0.26-0.86
			c-0.03,0.41-0.2,0.4-0.07,0.19c0.04-0.07,0.32-0.45,0.31-0.51c0.01,0.05-0.41,0.46-0.11,0.15c0.11-0.11,0.21-0.22,0.32-0.32
			c0.21-0.2,0.42-0.39,0.63-0.58c0.1-0.09,0.21-0.18,0.31-0.27c0.34-0.29-0.49,0.31-0.07,0.06c0.1-0.06,0.2-0.13,0.3-0.19
			c0.06-0.04,0.13-0.07,0.19-0.1c0.24-0.11,0.18-0.09-0.18,0.06c0.03,0.03,0.93-0.27,1.02-0.29c1.28-0.26,2.14-1.85,1.75-3.08
			C246.97,186.62,245.7,185.95,244.33,186.23L244.33,186.23z"/>
	</g>
</g>
<g>
	<g>
		<path class="st3" d="M247.72,213.85c-1.39,0.25-2.74,1.15-3.7,2.16c-1.11,1.17-1.9,2.62-2.02,4.25c-0.24,3.23,2.07,6.7,5.07,7.82
			c1.41,0.53,3.1,0.48,4.54,0.05c1.6-0.47,2.85-1.44,3.8-2.79c0.95-1.34,1.56-2.96,1.75-4.58c0.22-1.85-0.5-3.67-1.66-5.08
			C253.59,213.37,250.43,213.21,247.72,213.85c-1.27,0.3-2.15,1.82-1.75,3.08c0.43,1.33,1.71,2.07,3.08,1.75
			c0.28-0.07,0.56-0.12,0.84-0.17c0.42-0.07-0.61,0.06-0.29,0.04c0.09-0.01,0.19-0.02,0.28-0.03c0.19-0.01,0.39-0.02,0.58-0.02
			c0.13,0,0.48-0.03,0.6,0.04c0.01,0.01-0.7-0.13-0.3-0.03c0.08,0.02,0.16,0.03,0.24,0.05c0.1,0.02,0.2,0.06,0.3,0.09
			c0.25,0.06,0.29,0.24-0.19-0.09c0.13,0.09,0.4,0.27,0.56,0.32c-0.34-0.09-0.38-0.33-0.19-0.14c0.08,0.08,0.17,0.16,0.25,0.24
			c0.32,0.34-0.11,0-0.06-0.11c0,0.01,0.2,0.3,0.18,0.27c0.06,0.1,0.12,0.2,0.17,0.3c0.03,0.05,0.05,0.1,0.08,0.15
			c0.09,0.2,0.1,0.21,0.01,0.01c-0.04-0.38,0.02,0.1,0.04,0.18c0.01,0.05,0.03,0.11,0.04,0.16c0.05,0.27,0.05,0.22,0-0.17
			c-0.02,0.24,0.01,0.51,0.01,0.76c-0.01,0.34,0.16-0.59-0.01-0.05c-0.04,0.11-0.06,0.24-0.09,0.35c-0.03,0.12-0.07,0.23-0.11,0.34
			c-0.01,0.03-0.22,0.59-0.07,0.21c0.15-0.38-0.08,0.17-0.1,0.2c-0.08,0.16-0.16,0.32-0.25,0.48c-0.1,0.19-0.2,0.37-0.32,0.54
			c-0.04,0.06-0.34,0.44-0.05,0.1c0.28-0.34-0.02,0.01-0.07,0.07c-0.11,0.12-0.3,0.24-0.39,0.37c0.21-0.35,0.41-0.27,0.13-0.11
			c-0.12,0.07-0.23,0.14-0.35,0.21c-0.19,0.1-0.44,0.12,0.16-0.05c-0.09,0.03-0.18,0.07-0.27,0.1c-0.24,0.08-0.49,0.13-0.74,0.19
			c-0.22,0.05-0.31-0.06,0.2-0.02c-0.1-0.01-0.21,0.02-0.31,0.02c-0.13,0.01-0.26,0.01-0.39,0c-0.1,0-0.65,0.02-0.21-0.01
			c0.4-0.02,0-0.01-0.12-0.05c-0.08-0.02-0.21-0.09-0.29-0.09c0.36,0.01,0.4,0.21,0.17,0.07c-0.11-0.06-0.22-0.13-0.33-0.19
			c-0.29-0.15,0.45,0.42,0.07,0.06c-0.08-0.07-0.16-0.14-0.24-0.22c-0.19-0.19-0.37-0.39-0.55-0.58c-0.36-0.4,0.23,0.36,0.05,0.06
			c-0.07-0.11-0.15-0.22-0.22-0.33c-0.13-0.2-0.23-0.42-0.34-0.63c-0.16-0.31,0.19,0.6,0.04,0.09c-0.03-0.1-0.07-0.2-0.1-0.3
			c-0.03-0.1-0.06-0.2-0.08-0.3c-0.02-0.1-0.04-0.21-0.06-0.31c0.02,0.12,0.03,0.24,0.05,0.35c0,0,0.04-1.16-0.04-0.55
			c-0.07,0.48,0,0.05,0.03-0.04c0.03-0.12,0.12-0.26,0.12-0.38c0,0.04-0.28,0.57-0.09,0.22c0.07-0.12,0.13-0.25,0.21-0.37
			c0.05-0.08,0.11-0.16,0.16-0.24c0.26-0.42-0.35,0.38-0.03,0.04c0.2-0.22,0.41-0.42,0.62-0.63c0.12-0.12,0.35-0.21-0.16,0.12
			c0.12-0.08,0.23-0.17,0.36-0.25c0.19-0.12,0.42-0.2,0.61-0.33c-0.49,0.33-0.4,0.14-0.16,0.09c0.14-0.03,0.28-0.07,0.43-0.1
			c1.29-0.23,2.14-1.87,1.75-3.08C250.35,214.21,249.1,213.6,247.72,213.85L247.72,213.85z"/>
	</g>
</g>
<g>
	<g>
		<path class="st3" d="M273.18,224.16c-2.13-0.29-4.07,1.56-5.19,3.16c-1.01,1.44-1.78,3.28-2.09,5.01
			c-0.38,2.07-0.23,4.11,0.69,6.03c0.84,1.75,2.36,2.99,4.16,3.65c3.33,1.22,7.16-0.13,9.31-2.84c2.36-2.97,3.42-7.52,1.3-10.91
			c-1.11-1.76-2.63-2.94-4.61-3.56c-1.49-0.47-3.44-0.83-4.97-0.3c-1.23,0.43-2.18,1.73-1.75,3.08c0.39,1.22,1.75,2.21,3.08,1.75
			c0.08-0.03,0.19-0.04,0.27-0.08c0.26-0.12-0.6,0.01-0.29,0.04c0.22,0.01,0.44-0.02,0.66-0.01c0.11,0.01,0.21,0.02,0.32,0.02
			c0.49,0.03-0.17-0.02-0.17-0.03c0.06-0.07,0.85,0.17,0.94,0.19c0.25,0.06,0.5,0.13,0.74,0.21c0.1,0.03,0.21,0.07,0.31,0.11
			c0.42,0.14-0.14-0.03-0.17-0.07c0.06,0.08,0.47,0.27,0.56,0.3c0.27,0.09-0.4-0.4-0.02-0.01c0.11,0.12,0.24,0.22,0.35,0.34
			c0.12,0.12,0.23,0.25,0.34,0.38c-0.06-0.08-0.26-0.39-0.02-0.01c0.1,0.16,0.41,0.51,0.41,0.7c-0.03-0.08-0.06-0.16-0.1-0.25
			c0.04,0.09,0.07,0.19,0.1,0.28c0.06,0.18,0.1,0.37,0.14,0.56c-0.02-0.1-0.03-0.49,0,0.02c0.01,0.23,0.02,0.46,0.01,0.69
			c0,0.15-0.02,0.31-0.03,0.46c0.01-0.44,0.02-0.09,0,0.02c-0.06,0.29-0.12,0.58-0.2,0.87c-0.02,0.08-0.17,0.77-0.27,0.81
			c0,0,0.27-0.55,0.03-0.08c-0.09,0.17-0.17,0.34-0.26,0.5c-0.12,0.22-0.27,0.43-0.4,0.64c-0.31,0.51,0.24-0.26-0.01,0.02
			c-0.11,0.12-0.2,0.24-0.31,0.35c-0.17,0.18-0.35,0.35-0.54,0.52c-0.35,0.32,0.04,0,0.07-0.05c-0.09,0.13-0.33,0.23-0.47,0.31
			c-0.13,0.08-0.28,0.14-0.41,0.22c-0.29,0.18,0.42-0.14,0.09-0.03c-0.26,0.08-0.52,0.17-0.79,0.23c-0.08,0.02-0.27,0.08-0.36,0.07
			c0.5,0.06,0.3-0.03,0.12-0.03c-0.15,0-0.31,0.01-0.46,0.01c-0.08,0-0.71-0.02-0.31,0c0.36,0.02-0.02-0.01-0.12-0.03
			c-0.15-0.03-0.3-0.07-0.44-0.11c-0.05-0.01-0.33-0.12-0.34-0.12c0.09-0.07,0.43,0.22,0.1,0.03c-0.11-0.06-0.21-0.11-0.32-0.17
			c-0.03-0.02-0.5-0.36-0.19-0.11c0.31,0.25-0.14-0.14-0.16-0.16c-0.05-0.05-0.42-0.46-0.19-0.19c0.24,0.29-0.13-0.21-0.14-0.23
			c-0.07-0.11-0.13-0.23-0.19-0.34c-0.26-0.46,0,0.05,0.01,0.06c-0.05-0.04-0.11-0.3-0.13-0.37c-0.05-0.16-0.09-0.32-0.13-0.48
			c-0.03-0.15-0.16-0.6-0.03-0.02c-0.07-0.31-0.05-0.67-0.04-0.99c0-0.15,0.02-0.3,0.03-0.45c0.05-0.7-0.12,0.46,0.04-0.22
			c0.08-0.37,0.17-0.73,0.28-1.09c0.05-0.14,0.09-0.29,0.14-0.43c0.02-0.05,0.3-0.72,0.08-0.24c0.15-0.34,0.31-0.67,0.48-0.99
			c0.16-0.3,0.34-0.58,0.52-0.88c0.32-0.53-0.23,0.2,0.04-0.06c0.12-0.12,0.23-0.25,0.35-0.37c0.12-0.12,0.26-0.22,0.38-0.33
			c0.14-0.12,0.1-0.09-0.12,0.09c0.08-0.06,0.15-0.11,0.23-0.16c0.12-0.07,0.41-0.11,0.11-0.07c-0.13,0.08-0.28,0.11-0.44,0.1
			c0.13-0.01,0.26,0,0.38,0.03c1.3,0.17,2.55-1.27,2.5-2.5C275.62,225.16,274.58,224.35,273.18,224.16L273.18,224.16z"/>
	</g>
</g>
<g>
	<g>
		<path class="st3" d="M287.09,207.47c-2.74,1.39-4.69,4.11-4.8,7.22c-0.1,2.96,1.73,6,4.41,7.28c2.93,1.4,6.48,0.83,8.82-1.44
			c2.56-2.48,2.79-6.32,1.43-9.45c-0.64-1.47-1.78-2.82-3.23-3.55c-1.76-0.88-3.66-0.99-5.56-0.53c-1.27,0.31-2.15,1.82-1.75,3.08
			c0.43,1.32,1.71,2.07,3.08,1.75c0.14-0.03,0.29-0.06,0.43-0.09c0.35-0.09-0.64,0.03-0.08,0.01c0.21-0.01,0.43-0.03,0.64-0.02
			c0.13,0,0.26,0.02,0.38,0.02c0.34,0.02-0.64-0.15-0.15-0.01c0.23,0.07,0.46,0.15,0.69,0.2c-0.54-0.13-0.38-0.18-0.21-0.08
			c0.1,0.06,0.21,0.11,0.31,0.17c0.08,0.05,0.2,0.17,0.29,0.19c-0.05-0.01-0.46-0.41-0.18-0.13c0.14,0.14,0.29,0.32,0.45,0.45
			c0.24,0.19-0.34-0.53-0.08-0.11c0.08,0.13,0.17,0.26,0.25,0.4c0.09,0.16,0.33,0.45,0.33,0.63c-0.04-0.09-0.08-0.18-0.11-0.27
			c0.03,0.08,0.06,0.16,0.09,0.25c0.05,0.14,0.09,0.28,0.13,0.42c0.03,0.1,0.22,0.61,0.15,0.68c0.08-0.08-0.05-0.56-0.02-0.06
			c0.01,0.17,0.02,0.34,0.01,0.52c0,0.14-0.02,0.29-0.02,0.43c-0.01,0.3-0.14,0.09,0.02-0.15c-0.11,0.17-0.13,0.56-0.19,0.76
			c-0.01,0.03-0.02,0.06-0.03,0.08c-0.1,0.26-0.08,0.22,0.06-0.11c0,0.07-0.13,0.27-0.16,0.32c-0.05,0.1-0.11,0.19-0.16,0.29
			c-0.05,0.08-0.11,0.17-0.16,0.25c0.07-0.09,0.14-0.18,0.21-0.27c-0.15,0.07-0.37,0.41-0.51,0.54c-0.07,0.07-0.16,0.12-0.22,0.19
			c0.38-0.4,0.31-0.22,0.15-0.13c-0.21,0.13-0.42,0.25-0.64,0.37c-0.16,0.09-0.38,0.09,0.19-0.07c-0.14,0.04-0.28,0.1-0.42,0.15
			c-0.19,0.06-0.56,0.07-0.72,0.17c0.04-0.02,0.64-0.06,0.22-0.04c-0.1,0-0.2,0.01-0.3,0.02c-0.12,0-0.25,0-0.37-0.01
			c-0.3-0.02-0.3-0.16,0.15,0.04c-0.21-0.09-0.5-0.1-0.73-0.17c-0.03-0.01-0.24-0.11-0.29-0.1c0.28-0.04,0.47,0.21,0.12,0.03
			c-0.2-0.11-0.39-0.23-0.58-0.35c-0.36-0.24,0.14,0.08,0.15,0.12c0-0.05-0.24-0.21-0.28-0.25c-0.09-0.09-0.18-0.18-0.27-0.27
			c-0.03-0.04-0.07-0.08-0.1-0.11c-0.17-0.2-0.13-0.15,0.11,0.15c-0.01-0.14-0.26-0.37-0.34-0.51c-0.06-0.11-0.12-0.22-0.18-0.33
			c-0.18-0.37,0.08-0.13,0.04,0.11c0.03-0.14-0.15-0.43-0.19-0.58c-0.03-0.12-0.05-0.25-0.08-0.37c-0.06-0.24,0.05,0.64,0.01,0.06
			c-0.01-0.18,0.08-0.67,0.01-0.83c0.02,0.03-0.12,0.64-0.03,0.22c0.03-0.14,0.06-0.29,0.1-0.43c0.03-0.09,0.05-0.19,0.08-0.28
			c0.03-0.09,0.06-0.18,0.1-0.28c-0.05,0.11-0.09,0.22-0.14,0.33c0.15-0.13,0.28-0.54,0.39-0.71c0.05-0.07,0.2-0.23,0.21-0.31
			c-0.07,0.09-0.14,0.18-0.21,0.27c0.06-0.08,0.13-0.15,0.2-0.23c0.17-0.19,0.35-0.37,0.54-0.54c0,0,0.23-0.17,0.24-0.2
			c-0.3,0.23-0.35,0.27-0.13,0.11c0.04-0.03,0.09-0.06,0.13-0.09c0.27-0.18,0.55-0.33,0.83-0.48c1.17-0.59,1.6-2.33,0.9-3.42
			C289.74,207.17,288.34,206.83,287.09,207.47L287.09,207.47z"/>
	</g>
</g>
<g>
	<g>
		<path class="st3" d="M287.28,185.26c-3.43,0.97-5.82,4.55-5.76,8.06c0.07,3.65,2.41,6.73,5.84,7.9c3.13,1.07,6.8,0.05,8.98-2.42
			c1.26-1.43,2.02-3.12,2.21-5.03c0.17-1.72-0.39-3.33-1.26-4.79c-0.93-1.58-2.22-3.06-4-3.66c-0.84-0.28-1.81-0.35-2.69-0.41
			C289.49,184.83,288.35,184.96,287.28,185.26c-1.26,0.36-2.16,1.78-1.75,3.08c0.41,1.28,1.73,2.13,3.08,1.75
			c0.18-0.05,0.35-0.1,0.53-0.14c0.17-0.04,0.56-0.21,0.07-0.02c0.23-0.08,0.56-0.04,0.81-0.04c0.32,0,0.64,0.03,0.96,0.06
			c0.16,0.01,0.44,0.11-0.12-0.02c0.17,0.04,0.35,0.05,0.52,0.08c0.12,0.02,0.82,0.22,0.41,0.07c-0.41-0.16,0.02,0.04,0.09,0.07
			c0.16,0.08,0.26,0.28-0.14-0.13c0.16,0.17,0.35,0.31,0.52,0.48c0.03,0.03,0.28,0.28,0.27,0.3c0.03-0.05-0.34-0.48,0.01,0.02
			c0.28,0.39,0.52,0.81,0.75,1.23c0.05,0.09,0.09,0.18,0.14,0.26c0.19,0.33-0.01-0.09-0.04-0.12c0.08,0.11,0.11,0.31,0.14,0.45
			c0.03,0.09,0.05,0.18,0.06,0.28c-0.03-0.32-0.04-0.39-0.02-0.2c0.01,0.29,0.02,0.57,0.01,0.86c-0.02,0.51,0.03-0.07,0.02-0.1
			c0.03,0.1-0.08,0.36-0.11,0.47c-0.04,0.15-0.1,0.3-0.14,0.46c-0.07,0.23-0.19,0.17,0.07-0.14c-0.16,0.2-0.25,0.5-0.39,0.72
			c-0.03,0.05-0.06,0.09-0.09,0.14c-0.13,0.18-0.12,0.18,0,0.01c0.03-0.04,0.06-0.08,0.1-0.12c-0.07,0.09-0.14,0.17-0.21,0.25
			c-0.14,0.16-0.3,0.32-0.46,0.47c-0.04,0.04-0.08,0.07-0.12,0.11c-0.17,0.14-0.17,0.14,0,0.01c0.04-0.03,0.08-0.06,0.12-0.09
			c-0.09,0.07-0.18,0.13-0.27,0.19c-0.23,0.15-0.47,0.28-0.71,0.41c-0.48,0.26,0.41-0.14,0.07-0.02c-0.13,0.04-0.26,0.09-0.39,0.13
			c-0.21,0.06-0.42,0.11-0.64,0.16c-0.55,0.13,0.43-0.01,0.07-0.01c-0.14,0-0.29,0.02-0.43,0.02c-0.11,0-0.23,0-0.35-0.01
			c-0.09,0-0.17-0.01-0.26-0.02c-0.19-0.02-0.11-0.01,0.24,0.03c-0.21-0.1-0.53-0.11-0.76-0.17c-0.14-0.04-0.27-0.09-0.41-0.14
			c-0.3-0.1-0.01-0.13,0.12,0.05c-0.1-0.14-0.54-0.28-0.68-0.37c-0.1-0.06-0.29-0.15-0.36-0.24c0.08,0.06,0.16,0.12,0.24,0.18
			c-0.09-0.07-0.17-0.15-0.26-0.23c-0.12-0.11-0.45-0.35-0.47-0.5c0.06,0.08,0.12,0.16,0.18,0.23c-0.05-0.07-0.1-0.14-0.15-0.21
			c-0.08-0.12-0.15-0.24-0.22-0.37c-0.06-0.1-0.11-0.2-0.16-0.31c-0.22-0.44,0.04,0.12,0.05,0.12c-0.12-0.06-0.24-0.79-0.26-0.91
			c-0.1-0.49-0.09,0.02,0,0.07c-0.05-0.03-0.03-0.47-0.03-0.52c0-0.11,0-0.23,0-0.35c0-0.09,0.01-0.17,0.02-0.26
			c0.02-0.19,0-0.12-0.04,0.24c0.1-0.26,0.11-0.57,0.2-0.84c0.02-0.06,0.24-0.55,0.06-0.18c-0.18,0.36,0.1-0.18,0.14-0.25
			c0.07-0.13,0.15-0.26,0.23-0.38c0.09-0.13,0.31-0.62,0.03-0.08c0.13-0.24,0.41-0.47,0.61-0.66c0.04-0.04,0.2-0.21,0.27-0.24
			c-0.27,0.21-0.3,0.23-0.08,0.08c0.05-0.03,0.1-0.06,0.15-0.09c0.12-0.08,0.26-0.14,0.38-0.21c0.17-0.08,0.1-0.05-0.2,0.08
			c0.11-0.04,0.22-0.07,0.33-0.1c1.26-0.35,2.16-1.79,1.75-3.08C289.94,185.72,288.63,184.88,287.28,185.26L287.28,185.26z"/>
	</g>
</g>
<g>
	<g>
		<path class="st3" d="M268.22,192.2c-4.03,0.21-7.33,3.31-8.05,7.25c-0.67,3.64,0.32,8.11,3.86,9.98
			c3.46,1.82,7.84,0.68,10.42-2.12c2.44-2.64,3.21-6.4,1.99-9.79c-0.68-1.88-1.78-3.35-3.55-4.32
			C271.41,192.37,269.86,192.35,268.22,192.2c-1.31-0.12-2.56,1.24-2.5,2.5c0.07,1.46,1.1,2.37,2.5,2.5
			c0.55,0.05,1.1,0.09,1.65,0.13c0.62,0.05-0.53-0.13-0.05-0.01c0.14,0.04,0.42,0.17,0.56,0.16c-0.38,0.02-0.52-0.26-0.21-0.08
			c0.1,0.06,0.21,0.11,0.31,0.17c0.22,0.13,0.42,0.27,0.64,0.4c0.27,0.16-0.43-0.44-0.11-0.06c0.06,0.07,0.14,0.15,0.21,0.22
			c0.38,0.36-0.28-0.48-0.01-0.01c0.08,0.14,0.17,0.27,0.25,0.41c0.05,0.1,0.1,0.2,0.15,0.29c0.26,0.49-0.13-0.4-0.03-0.06
			c0.07,0.24,0.17,0.48,0.23,0.73c0.07,0.26,0.08,0.58,0.18,0.83c-0.16-0.43-0.04-0.39-0.02-0.17c0.01,0.19,0.03,0.38,0.04,0.57
			c0.01,0.23,0.01,0.47-0.01,0.7c0,0.05-0.01,0.1-0.01,0.15c-0.02,0.25-0.02,0.2,0.02-0.15c0.02,0.06-0.07,0.33-0.07,0.36
			c-0.06,0.27-0.12,0.66-0.28,0.89c0.04-0.05,0.25-0.49,0.03-0.09c-0.09,0.16-0.17,0.33-0.27,0.49c-0.1,0.16-0.2,0.31-0.31,0.47
			c-0.21,0.32,0.06-0.03,0.05-0.06c0.03,0.09-0.59,0.63-0.64,0.68c-0.09,0.09-0.19,0.17-0.28,0.25c-0.45,0.4,0.31-0.18-0.01,0.01
			c-0.29,0.17-0.58,0.36-0.88,0.52c-0.53,0.29,0.36-0.11,0,0.01c-0.15,0.05-0.29,0.11-0.44,0.15c-0.27,0.08-0.54,0.13-0.81,0.2
			c-0.37,0.09,0.62-0.03,0.02-0.01c-0.12,0.01-0.24,0.01-0.37,0.02c-0.18,0-0.36-0.01-0.55-0.02c-0.51-0.02,0.47,0.15-0.05-0.02
			c-0.11-0.04-0.24-0.06-0.35-0.09c-0.05-0.01-0.57-0.24-0.21-0.06c0.37,0.18-0.16-0.1-0.19-0.11c-0.02-0.01-0.29-0.15-0.31-0.2
			c0.07,0.06,0.15,0.12,0.22,0.17c-0.09-0.08-0.18-0.15-0.27-0.24c-0.09-0.08-0.16-0.17-0.25-0.26c-0.33-0.33,0.02,0.07,0.06,0.09
			c-0.14-0.1-0.26-0.38-0.34-0.53c-0.07-0.13-0.14-0.26-0.21-0.4c-0.22-0.43,0.02,0.08,0.04,0.1c-0.15-0.14-0.22-0.66-0.27-0.87
			c-0.03-0.12-0.05-0.24-0.08-0.36c-0.15-0.6,0.02,0.56-0.01-0.06c-0.02-0.32-0.04-0.64-0.04-0.97c0-0.2,0.02-0.4,0.03-0.61
			c0.02-0.53-0.11,0.43,0.02-0.14c0.08-0.33,0.14-0.66,0.24-0.98c0.03-0.09,0.23-0.74,0.03-0.15c0.06-0.19,0.17-0.37,0.27-0.54
			c0.06-0.12,0.13-0.23,0.2-0.35c0.07-0.11,0.15-0.22,0.23-0.33c-0.05,0.07-0.11,0.14-0.16,0.21c0.14-0.3,0.55-0.59,0.79-0.8
			c0.36-0.33-0.04,0.01-0.06,0.05c0.08-0.14,0.42-0.27,0.56-0.35c0.13-0.07,0.28-0.18,0.42-0.21c-0.08,0.04-0.17,0.07-0.25,0.11
			c0.12-0.04,0.23-0.08,0.35-0.12c0.12-0.03,0.24-0.06,0.36-0.09c0.28-0.05,0.24-0.05-0.11,0c0.12-0.01,0.25-0.02,0.37-0.03
			c1.3-0.07,2.56-1.1,2.5-2.5C270.67,193.4,269.62,192.12,268.22,192.2L268.22,192.2z"/>
	</g>
</g>
<g>
	<g>
		<path class="st3" d="M267.11,181.29c-0.1,3.76-0.15,7.53-0.25,11.29c-0.04,1.31,1.18,2.56,2.5,2.5c1.39-0.06,2.46-1.1,2.5-2.5
			c0.1-3.76,0.15-7.53,0.25-11.29c0.04-1.31-1.18-2.56-2.5-2.5C268.22,178.85,267.15,179.89,267.11,181.29L267.11,181.29z"/>
	</g>
</g>
<g>
	<g>
		<path class="st3" d="M253.15,197.86c2.39,1.06,4.78,2.12,7.17,3.18c0.64,0.28,1.23,0.44,1.93,0.25c0.58-0.16,1.21-0.61,1.49-1.15
			c0.31-0.58,0.46-1.28,0.25-1.93c-0.19-0.58-0.57-1.24-1.15-1.49c-2.39-1.06-4.78-2.12-7.17-3.18c-0.64-0.28-1.23-0.44-1.93-0.25
			c-0.58,0.16-1.21,0.61-1.49,1.15c-0.31,0.58-0.46,1.28-0.25,1.93C252.19,196.94,252.57,197.6,253.15,197.86L253.15,197.86z"/>
	</g>
</g>
<g>
	<g>
		<path class="st3" d="M256.89,217.02c2.37-2.59,4.74-5.18,7.1-7.77c0.88-0.97,1.03-2.59,0-3.54c-0.96-0.88-2.59-1.03-3.54,0
			c-2.37,2.59-4.74,5.18-7.1,7.77c-0.88,0.97-1.03,2.59,0,3.54C254.31,217.9,255.94,218.05,256.89,217.02L256.89,217.02z"/>
	</g>
</g>
<g>
	<g>
		<path class="st3" d="M273.01,207.39c-0.04-0.19-0.08-0.38-0.12-0.57c-0.29-1.32-1.82-2.09-3.08-1.75
			c-1.43,0.39-1.95,1.73-1.75,3.08c0.93,6.24,1.86,12.48,2.79,18.71c0.2,1.34,1.89,2.07,3.08,1.75c1.43-0.39,1.95-1.73,1.75-3.08
			c-0.93-6.24-1.86-12.48-2.79-18.71c-1.61,0.44-3.21,0.89-4.82,1.33c0.04,0.19,0.08,0.38,0.12,0.57c0.29,1.32,1.82,2.09,3.08,1.75
			C272.63,210.09,273.3,208.72,273.01,207.39L273.01,207.39z"/>
	</g>
</g>
<g>
	<g>
		<path class="st3" d="M274.14,207.19c3.03,2.04,6.27,3.71,9.65,5.09c0.56,0.23,1.43,0.04,1.93-0.25c0.52-0.3,1.01-0.9,1.15-1.49
			c0.15-0.64,0.11-1.36-0.25-1.93c-0.38-0.58-0.86-0.89-1.49-1.15c-0.1-0.04-0.2-0.08-0.31-0.13c-0.25-0.1-0.2-0.08,0.14,0.06
			c-0.2-0.04-0.42-0.18-0.61-0.26c-0.35-0.16-0.71-0.32-1.06-0.48c-0.78-0.37-1.54-0.75-2.3-1.16c-1.49-0.8-2.93-1.67-4.33-2.62
			c-1.09-0.73-2.82-0.24-3.42,0.9C272.58,205.03,272.98,206.41,274.14,207.19L274.14,207.19z"/>
	</g>
</g>
<g>
	<g>
		<path class="st3" d="M277.6,199.54c0.03-0.11,0.06-0.21,0.09-0.32c-0.58,0.58-1.16,1.16-1.75,1.75c2.84-0.94,5.57-2.27,8.01-4.01
			c0.54-0.39,0.97-0.83,1.15-1.49c0.16-0.6,0.09-1.4-0.25-1.93c-0.68-1.05-2.28-1.71-3.42-0.9c-1.64,1.17-3.41,2.16-5.27,2.96
			c0.2-0.08,0.4-0.17,0.6-0.25c-0.5,0.21-1,0.4-1.5,0.58c-0.39,0.14-0.89,0.25-1.23,0.47c-0.68,0.44-1.02,1.06-1.24,1.82
			c-0.36,1.26,0.44,2.78,1.75,3.08C275.86,201.59,277.21,200.88,277.6,199.54L277.6,199.54z"/>
	</g>
</g>
</svg>
