<?xml version="1.0" encoding="utf-8"?>
<!-- Generator: Adobe Illustrator 25.3.1, SVG Export Plug-In . SVG Version: 6.00 Build 0)  -->
<svg version="1.1" id="图层_1" xmlns="http://www.w3.org/2000/svg" xmlns:xlink="http://www.w3.org/1999/xlink" x="0px" y="0px"
	 viewBox="0 0 326.15 326.15" style="enable-background:new 0 0 326.15 326.15;" xml:space="preserve">
<style type="text/css">
	.st0{fill:none;stroke:#F9C898;stroke-width:3;stroke-miterlimit:10;}
</style>
<circle class="st0" cx="163.07" cy="163.07" r="161.57"/>
<path class="st0" d="M162.48,1.5"/>
<path class="st0" d="M162.48,324.31"/>
<line class="st0" x1="163.07" y1="19.28" x2="163.07" y2="2.42"/>
<line class="st0" x1="19.28" y1="163.07" x2="2.42" y2="163.07"/>
<line class="st0" x1="163.07" y1="306.87" x2="163.07" y2="323.73"/>
<line class="st0" x1="306.87" y1="163.07" x2="323.73" y2="163.07"/>
<line class="st0" x1="294.91" y1="86.96" x2="302.21" y2="82.75"/>
<line class="st0" x1="239.19" y1="31.24" x2="243.4" y2="23.94"/>
<line class="st0" x1="31.24" y1="86.96" x2="23.94" y2="82.75"/>
<line class="st0" x1="294.91" y1="239.19" x2="302.21" y2="243.4"/>
<line class="st0" x1="239.19" y1="294.91" x2="243.4" y2="302.21"/>
<line class="st0" x1="86.96" y1="294.91" x2="82.75" y2="302.21"/>
<line class="st0" x1="86.96" y1="31.24" x2="82.75" y2="23.94"/>
<line class="st0" x1="31.24" y1="239.19" x2="23.94" y2="243.4"/>
<path class="st0" d="M294.91,86.96"/>
<path class="st0" d="M163.07,19.28"/>
</svg>
