<?xml version="1.0" encoding="utf-8"?>
<!-- Generator: Adobe Illustrator 25.3.1, SVG Export Plug-In . SVG Version: 6.00 Build 0)  -->
<svg version="1.1" id="图层_1" xmlns="http://www.w3.org/2000/svg" xmlns:xlink="http://www.w3.org/1999/xlink" x="0px" y="0px"
	 viewBox="0 0 44.99 130.78" style="enable-background:new 0 0 44.99 130.78;" xml:space="preserve">
<style type="text/css">
	.st0{fill:#326540;}
	.st1{display:none;fill:url(#SVGID_1_);}
</style>
<g>
	<path class="st0" d="M24.69,128.3c0.53-2.4,4.74-36.02,5.1-38.45c0.36-2.43,0.55-4.87,0.4-7.32c-0.15-2.45-0.69-4.93-1.67-7.18
		c-0.98-2.25-2.41-4.27-4.33-5.8c-0.95-0.75-2.02-1.4-2.99-2.14s-1.84-1.55-2.38-2.63c-0.6-1.2-0.68-2.51-0.6-3.85
		c0.08-1.34,0.33-2.72,0.41-4.06c0.11-1.95-0.16-3.89-0.72-5.76s-1.4-3.67-2.43-5.33c-1.02-1.66-2.22-3.2-3.51-4.66
		c-1.29-1.46-2.68-2.85-4.1-4.19c-1.18-1.12-2.41-2.3-3.4-3.59s-1.74-2.71-1.95-4.33c-0.23-1.8,0.25-3.52,0.97-5.2
		s1.69-3.33,2.44-4.98c1.14-2.55,1.77-5.31,1.88-8.1c0.11-2.79-0.3-5.6-1.24-8.22l0.01,0.02c0.73,0.22,2.28,0.59,3.33,1.35
		c2.38,1.73,3.66,4.5,4.31,7.58c0.87,4.11,0.62,8.21,2.26,12.03c1.98,4.59,6.27,7.53,8.37,12c3.13,6.65,1.94,14.52,5.52,20.98
		c2.08,3.76,6.02,5.97,8.39,9.45c2.58,3.79,3.5,7.47,3.72,11.74c0.19,3.68-4.42,21.61-6.83,26.11
		C33.53,107.74,27.3,126.19,24.69,128.3"/>
	<g>
		<path class="st0" d="M27.1,128.96c0.35-1.61,0.51-3.28,0.73-4.91c0.45-3.28,0.88-6.57,1.31-9.86c0.88-6.71,1.73-13.43,2.6-20.15
			c0.13-0.99,0.26-1.99,0.39-2.98c0.02-0.16,0.04-0.32,0.06-0.48c-0.04,0.28-0.1,0.7-0.03,0.22c0.13-0.89,0.25-1.77,0.35-2.66
			c0.71-6.31-0.24-12.98-4.28-18.06c-0.91-1.15-1.97-2.11-3.14-2.98c-1.2-0.89-2.65-1.62-3.61-2.8c-1.76-2.17-0.32-5.82-0.33-8.34
			c-0.01-6.49-3.5-12.27-7.72-16.95c-2.28-2.53-5.2-4.66-7.17-7.44c-0.83-1.17-1.4-2.44-1.3-3.91c0.12-1.66,0.94-3.23,1.68-4.69
			c1.65-3.25,3-6.42,3.47-10.07c0.48-3.72,0.09-7.53-1.13-11.08C7.38,2.28,5.78,2.72,4.17,3.17c0.62,1.73,2.03,1.71,3.47,2.3
			C8.62,5.87,9.4,6.62,10,7.48c1.54,2.2,1.98,5.01,2.29,7.61c0.4,3.44,0.72,6.84,2.21,10.01c1.19,2.53,3.08,4.66,4.87,6.78
			c1.8,2.13,3.31,4.31,4.14,7.01c0.86,2.82,1.22,5.75,1.67,8.65c0.48,3.12,1.14,6.18,2.48,9.06c1.21,2.6,3.13,4.65,5.19,6.6
			c2.13,2.02,4.01,3.96,5.32,6.63c1.17,2.4,1.76,5.17,1.83,7.83c0.01,0.49-0.03,0.98-0.08,1.47c-0.06,0.67,0.06-0.31-0.06,0.43
			c-0.07,0.42-0.13,0.84-0.21,1.27c-0.32,1.82-0.72,3.63-1.15,5.43c-0.96,4.09-2.06,8.16-3.39,12.14c-0.26,0.79-0.54,1.57-0.83,2.35
			c-0.06,0.17-0.5,1.22-0.23,0.61c-0.13,0.3-0.27,0.61-0.42,0.91c-0.59,1.18-1.12,2.38-1.63,3.6c-1.69,4.06-3.22,8.19-4.89,12.26
			c-0.75,1.84-1.49,3.6-2.44,5.53c-0.34,0.7-0.7,1.39-1.11,2.05c-0.08,0.14-0.61,0.89-0.33,0.53c0.27-0.35-0.2,0.2-0.31,0.3
			c-1.03,0.88-0.9,2.63,0,3.54c1.02,1.02,2.5,0.88,3.54,0c0.92-0.78,1.55-1.99,2.1-3.04c0.83-1.59,1.55-3.23,2.25-4.88
			c1.72-4.03,3.28-8.13,4.9-12.2c0.31-0.79,0.63-1.58,0.95-2.36c0.08-0.2,0.16-0.4,0.25-0.6c-0.2,0.47-0.06,0.14-0.02,0.04
			c0.15-0.35,0.31-0.71,0.47-1.06c0.57-1.23,1.17-2.43,1.67-3.7c1.48-3.82,2.57-7.82,3.59-11.79c0.95-3.73,1.89-7.52,2.3-11.35
			c0.22-2.06-0.09-4.21-0.5-6.23c-0.61-3.04-1.88-6.03-3.7-8.55c-1.72-2.38-3.97-4.2-5.99-6.3c-2.01-2.09-3.16-4.52-3.86-7.32
			c-1.5-5.98-1.31-12.43-4.57-17.88c-1.63-2.72-3.95-4.9-5.79-7.45c-2.06-2.86-2.72-5.95-3.11-9.4c-0.4-3.58-0.83-7.25-2.68-10.43
			c-0.83-1.42-1.92-2.66-3.23-3.64C10.22,1,8.74,0.54,7.25,0.11C7.83,0.69,8.42,1.27,9,1.86c0-0.01,0-0.01-0.01-0.02
			c-0.45-1.27-1.7-2.12-3.08-1.75C4.68,0.43,3.73,1.88,4.17,3.17c1.03,3,1.44,6.16,1.01,9.31c-0.4,2.97-1.61,5.54-2.95,8.19
			c-1.49,2.96-2.7,6.04-2.05,9.4c0.6,3.08,2.79,5.57,4.96,7.69c4.28,4.18,8.85,8.47,10.49,14.45c0.38,1.38,0.57,2.78,0.53,4.21
			c-0.05,1.66-0.41,3.29-0.45,4.95c-0.08,3.21,1.22,5.84,3.73,7.8c1.18,0.92,2.5,1.66,3.61,2.66c1.06,0.96,1.91,2.06,2.6,3.31
			c1.36,2.47,1.99,5.31,2.09,8.12c0.11,3.09-0.39,6.13-0.78,9.19c-0.81,6.25-1.6,12.5-2.42,18.75c-0.25,1.96-0.51,3.92-0.77,5.88
			c-0.12,0.94-0.25,1.88-0.37,2.81c-0.02,0.15-0.04,0.3-0.06,0.44c-0.01,0.07-0.12,0.86-0.07,0.53c0.02-0.18-0.09,0.66-0.12,0.9
			c-0.26,1.95-0.45,3.94-0.86,5.87C21.6,130.77,26.42,132.11,27.1,128.96L27.1,128.96z"/>
	</g>
</g>
<linearGradient id="SVGID_1_" gradientUnits="userSpaceOnUse" x1="24.6896" y1="127.7725" x2="24.6936" y2="131.2855">
	<stop  offset="0" style="stop-color:#A7DBEF"/>
	<stop  offset="0.732" style="stop-color:#E4F3FA;stop-opacity:0.3512"/>
</linearGradient>
<circle class="st1" cx="24.69" cy="128.3" r="1.2"/>
</svg>
