<?xml version="1.0" encoding="utf-8"?>
<!-- Generator: Adobe Illustrator 25.3.1, SVG Export Plug-In . SVG Version: 6.00 Build 0)  -->
<svg version="1.1" id="图层_1" xmlns="http://www.w3.org/2000/svg" xmlns:xlink="http://www.w3.org/1999/xlink" x="0px" y="0px"
	 viewBox="0 0 71.1 190.18" style="enable-background:new 0 0 71.1 190.18;" xml:space="preserve">
<style type="text/css">
	.st0{fill:#9C8465;stroke:#89765E;stroke-miterlimit:10;}
	.st1{fill:#9C8465;}
	.st2{fill:#89765E;}
</style>
<rect x="56.91" y="135.64" class="st0" width="5.28" height="12.09"/>
<g>
	<path class="st1" d="M46.14,46.63c-0.38,4.2-1.14,7.8-1.52,12c-0.21,2.39-0.42,4.84,0.15,7.17c0.58,2.33,2.09,4.58,4.37,5.41
		c2.76,1,5.93-0.24,8.72,0.64c3.96,1.26,5.4,6.1,5.36,10.21c-0.07,5.72-1.81,11.27-3.08,16.85c-1.28,5.58-2.08,11.5-0.31,16.95
		c1.09,3.35,3.09,6.33,4.38,9.61c2.97,7.59,1.71,16.65-3.24,23.16"/>
	<g>
		<path class="st2" d="M43.64,46.63c-0.39,4.17-1.19,8.28-1.56,12.45c-0.35,4-0.28,8.19,2.27,11.51c1.15,1.49,2.69,2.64,4.52,3.16
			c1.93,0.55,3.92,0.32,5.89,0.27c1.41-0.03,2.74,0.11,3.74,1.04c0.93,0.86,1.46,2.12,1.79,3.36c0.9,3.4,0.31,7.13-0.38,10.52
			c-0.84,4.16-2.08,8.24-2.83,12.42c-0.77,4.23-1.09,8.52-0.28,12.77c0.78,4.04,2.97,7.48,4.64,11.18
			c3.26,7.24,2.07,15.75-2.64,22.05c-0.81,1.08-0.18,2.79,0.9,3.42c1.28,0.75,2.61,0.19,3.42-0.9c4.51-6.04,6.1-13.96,4.61-21.31
			c-0.82-4-2.9-7.46-4.59-11.12c-1.71-3.68-2.05-7.59-1.68-11.6c0.79-8.38,4.71-16.41,4.24-24.94c-0.18-3.29-1.11-6.73-3.44-9.17
			c-1.2-1.26-2.83-2.17-4.54-2.5c-1.98-0.38-3.93-0.1-5.92-0.12c-4.34-0.06-5.04-4.5-4.87-8.01c0.24-4.86,1.25-9.64,1.7-14.48
			c0.13-1.35-1.24-2.5-2.5-2.5C44.69,44.13,43.77,45.28,43.64,46.63L43.64,46.63z"/>
	</g>
</g>
<g>
	<path class="st1" d="M39.19,3.28c-12.15,1.93-19.88,13.3-26.15,22.8C5.29,37.84-0.11,51.07,3.69,65.26
		c4.09,15.29,14.86,27.23,15.71,43.62c0.75,14.4-4.51,28.6-2.38,43c1.94,13.11,11.18,24.27,24.27,27.36
		c9.52,2.25,24.71-0.29,25.8-12.38c0.62-6.88-4.09-12.58-7.3-18.18c-4.02-7-4.25-13.71-0.34-20.83c5.48-9.99,15.5-21.48,3.81-31.16
		c-4.02-3.33-9.28-5.86-11.06-11.14c-2.27-6.68,1.66-13.4,2.26-20.01c1.17-12.78-10.88-19.98-16.94-29.57
		c-1.79-2.83-3.18-6.02-3.47-9.39"/>
	<g>
		<path class="st2" d="M38.52,0.87C25.38,3.07,17.14,15.16,10.41,25.55C6.36,31.8,2.89,38.62,1.15,45.91
			c-1.77,7.44-1.51,15.04,0.8,22.33c4.1,12.98,13.17,24.42,14.74,38.18c1.83,16.03-4.99,31.85-1.79,47.88
			c2.47,12.38,11.51,23.03,23.64,26.8c9.34,2.9,22.57,1.8,28.57-6.91c3.8-5.52,2.76-12.49-0.09-18.15
			c-1.57-3.13-3.64-5.97-5.33-9.03c-1.76-3.19-2.78-6.68-2.52-10.34c0.26-3.6,1.93-6.79,3.73-9.84c1.61-2.73,3.32-5.42,4.79-8.23
			c2.93-5.61,4.89-12,1.94-18.03c-1.59-3.23-4.38-5.55-7.22-7.64c-2.32-1.71-4.94-3.36-6.62-5.76c-1.96-2.8-2.09-6.21-1.46-9.48
			c0.74-3.87,2.08-7.58,2.55-11.5c0.73-6.17-1.6-11.95-5.23-16.83c-3.48-4.68-7.86-8.64-11.18-13.43c-1.93-2.78-3.59-5.92-3.93-9.34
			c-0.13-1.34-1.05-2.5-2.5-2.5c-1.25,0-2.63,1.15-2.5,2.5c0.69,6.97,4.76,12.54,9.24,17.65c3.57,4.07,7.59,8.02,9.83,13.03
			c1.06,2.37,1.53,4.96,1.39,7.57c-0.19,3.56-1.5,6.99-2.27,10.46c-0.82,3.69-1.18,7.66,0.17,11.28c1.14,3.05,3.25,5.48,5.76,7.5
			c4.38,3.51,10.51,6.64,10.51,12.95c0,5.59-3.76,10.91-6.56,15.57c-1.81,3.01-3.64,6.06-4.63,9.46c-1.04,3.6-1.1,7.43-0.2,11.06
			c1.71,6.89,7.18,11.93,9.23,18.63c0.84,2.74,0.87,5.41-0.15,8.01c-0.61,1.55-2.07,3.32-3.42,4.27c-3.78,2.66-8.32,3.51-12.9,3.46
			c-2.51-0.03-4.21-0.25-6.64-0.91c-2.79-0.76-5.4-1.94-7.84-3.49c-4.77-3.05-8.48-7.52-10.91-12.61
			c-6.37-13.39-1.56-28.81-0.44-42.78c0.59-7.36,0.04-14.59-2.33-21.61c-2.13-6.33-5.28-12.25-8.15-18.27
			C8.35,71.77,5.57,65.35,5.05,58.6c-0.53-6.98,1.1-13.91,3.98-20.25c2.76-6.08,6.46-11.72,10.34-17.13
			c3.42-4.78,7.37-9.49,12.45-12.56c2.49-1.51,5.16-2.49,8.03-2.97c1.33-0.22,2.08-1.87,1.75-3.08C41.21,1.21,39.86,0.65,38.52,0.87
			L38.52,0.87z"/>
	</g>
</g>
<g>
	<path class="st1" d="M34.97,30.8c-1.17-3.59-1.13-6.95,0.4-10.4c1.53-3.45,4.14-6.33,6.21-9.26c2.07-2.93,3.58-5.59,5.29-8.64
		c-3.09-0.05-6,0.14-8.98,0.97"/>
	<g>
		<path class="st2" d="M37.38,30.14c-0.74-2.36-1-4.72-0.3-7.13c0.69-2.4,2.15-4.52,3.61-6.51c1.46-1.98,2.98-3.91,4.33-5.97
			c1.44-2.19,2.73-4.47,4.01-6.76C49.95,2.1,48.78,0.03,46.86,0c-3.25-0.04-6.5,0.22-9.65,1.05c-3.11,0.83-1.79,5.65,1.33,4.82
			c2.74-0.73,5.49-0.91,8.32-0.88c-0.72-1.25-1.44-2.51-2.16-3.76c-1.35,2.42-2.72,4.83-4.25,7.13c-1.52,2.29-3.27,4.4-4.84,6.65
			c-1.58,2.27-2.98,4.78-3.57,7.51c-0.65,3-0.39,6.02,0.52,8.94C33.52,34.53,38.34,33.22,37.38,30.14L37.38,30.14z"/>
	</g>
</g>
<g>
	<path class="st1" d="M52.51,182.19c0,1.1,0.01,2.22-0.36,3.25c-0.36,1.03-1.17,1.98-2.25,2.2c-1.3,0.26-2.56-0.57-3.55-1.45
		c-2.04-1.82-2.44-3.74-3.46-6.21"/>
	<g>
		<path class="st2" d="M50.01,182.19c0,0.41,0,0.81-0.01,1.22c-0.01,0.17-0.03,0.35-0.03,0.52c-0.03,0.28-0.02,0.23,0.03-0.15
			c-0.02,0.11-0.04,0.23-0.06,0.34c-0.04,0.17-0.08,0.34-0.13,0.5c-0.03,0.1-0.06,0.2-0.1,0.29c0.16-0.36,0.2-0.46,0.11-0.28
			c-0.08,0.14-0.16,0.28-0.24,0.42c-0.23,0.41,0.39-0.39,0.06-0.07c-0.08,0.07-0.51,0.42-0.14,0.18c0.41-0.27-0.16,0.06-0.2,0.1
			c0.37-0.15,0.47-0.18,0.29-0.12c-0.06,0.02-0.13,0.04-0.19,0.06c-0.4,0.13,0.59,0-0.01-0.01c-0.62-0.01,0.44,0.15-0.02-0.01
			c-0.08-0.02-0.15-0.04-0.22-0.07c-0.18-0.06-0.1-0.03,0.23,0.11c-0.01-0.04-0.89-0.52-0.97-0.58c-0.44-0.29,0.35,0.31-0.01-0.01
			c-0.16-0.14-0.32-0.28-0.48-0.42c-0.22-0.21-0.42-0.42-0.62-0.65c-0.06-0.07-0.12-0.15-0.18-0.22c0.25,0.32,0.29,0.38,0.14,0.17
			c-0.07-0.11-0.15-0.22-0.23-0.34c-0.17-0.26-0.32-0.53-0.46-0.81c-0.12-0.24-0.21-0.49-0.34-0.72c0.38,0.71,0.07,0.16-0.01-0.03
			c-0.05-0.13-0.1-0.26-0.15-0.38c-0.25-0.64-0.49-1.28-0.75-1.92c-0.26-0.63-0.54-1.14-1.15-1.49c-0.54-0.31-1.33-0.45-1.93-0.25
			c-0.6,0.2-1.19,0.57-1.49,1.15c-0.29,0.55-0.5,1.32-0.25,1.93c1.04,2.52,1.8,5.1,3.81,7.05c1.34,1.3,2.94,2.32,4.83,2.48
			c1.92,0.16,3.61-0.97,4.67-2.49c1.11-1.59,1.21-3.62,1.21-5.49c-0.01-1.31-1.15-2.56-2.5-2.5C51.16,179.75,50,180.78,50.01,182.19
			L50.01,182.19z"/>
	</g>
</g>
<g>
	<path class="st1" d="M53.05,180.49c0.26,0.7,1.08,0.99,1.81,1.19c1.52,0.43,3.03,0.85,4.55,1.28c1.52,0.43,3.16,0.85,4.63,0.28
		c1.61-0.62,2.59-2.33,2.83-4.04c0.25-1.71-0.11-3.43-0.47-5.12"/>
	<g>
		<path class="st2" d="M50.89,181.75c0.56,1.21,1.81,1.88,3.03,2.26c1.09,0.34,2.2,0.62,3.3,0.93c2.3,0.65,4.85,1.55,7.24,0.79
			c2.3-0.73,3.88-2.63,4.59-4.89c0.77-2.42,0.26-5.01-0.25-7.43c-0.27-1.28-1.84-2.14-3.08-1.75c-1.35,0.44-2.04,1.7-1.75,3.08
			c0.1,0.47,0.2,0.93,0.28,1.4c0.04,0.21,0.08,0.43,0.11,0.64c-0.05-0.35,0.01,0.1,0.02,0.23c0.04,0.47,0.06,0.94,0.04,1.41
			c0,0.07-0.08,0.74-0.03,0.41c0.05-0.31-0.06,0.23-0.07,0.29c-0.04,0.16-0.09,0.32-0.14,0.48c-0.08,0.25-0.17,0.35-0.01,0.06
			c-0.09,0.18-0.18,0.36-0.28,0.53c-0.04,0.06-0.37,0.5-0.15,0.23c0.23-0.27-0.15,0.14-0.19,0.19c-0.27,0.34,0.2-0.09-0.02,0.04
			c-0.14,0.08-0.29,0.16-0.42,0.25c0.28-0.1,0.32-0.12,0.12-0.05c-0.12,0.04-0.23,0.08-0.35,0.11c-0.08,0.02-0.16,0.03-0.24,0.05
			c0.22-0.03,0.24-0.03,0.06-0.02c-0.2-0.02-0.41,0-0.61,0c-0.73-0.02,0.2,0.07-0.2-0.01c-0.21-0.04-0.41-0.08-0.62-0.12
			c-0.88-0.2-1.74-0.46-2.61-0.71c-0.88-0.25-1.77-0.5-2.65-0.74c-0.35-0.1-0.7-0.21-1.05-0.32c0.7,0.2-0.13,0.02-0.09-0.08
			c0.05-0.11,0.59,0.78,0.33,0.21c-0.55-1.19-2.36-1.58-3.42-0.9C50.56,179.12,50.31,180.47,50.89,181.75L50.89,181.75z"/>
	</g>
</g>
<g>
	<g>
		<path class="st2" d="M23.8,165.65c9.34-9.12,22.27-14.04,35.31-13.54c3.22,0.12,3.21-4.88,0-5c-14.32-0.55-28.6,5-38.85,15
			C17.96,164.36,21.5,167.9,23.8,165.65L23.8,165.65z"/>
	</g>
</g>
<g>
	<g>
		<path class="st2" d="M19.94,135.15c11.22-8.73,25.65-12.93,39.79-11.96c1.35,0.09,2.5-1.22,2.5-2.5c0-1.43-1.15-2.41-2.5-2.5
			c-15.55-1.07-31.06,3.88-43.33,13.42c-1.07,0.83-0.87,2.66,0,3.54C17.46,136.2,18.88,135.98,19.94,135.15L19.94,135.15z"/>
	</g>
</g>
<g>
	<g>
		<path class="st2" d="M20.25,104.94c11.75-5.53,24.93-7.55,37.81-6.08c1.34,0.15,2.5-1.26,2.5-2.5c0-1.48-1.15-2.35-2.5-2.5
			c-13.78-1.58-27.8,0.87-40.33,6.76c-1.22,0.57-1.54,2.33-0.9,3.42C17.56,105.29,19.02,105.52,20.25,104.94L20.25,104.94z"/>
	</g>
</g>
<g>
	<g>
		<path class="st2" d="M13.1,83.41c11.3-5.84,23.99-8.58,36.69-8.04c3.22,0.14,3.21-4.86,0-5c-13.58-0.58-27.15,2.48-39.21,8.72
			C7.72,80.57,10.24,84.89,13.1,83.41L13.1,83.41z"/>
	</g>
</g>
<g>
	<g>
		<path class="st2" d="M4.84,59.53c11.56-5.48,24.83-7.52,37.5-5.68c1.33,0.19,2.69-0.33,3.08-1.75c0.32-1.18-0.4-2.88-1.75-3.08
			c-14.12-2.05-28.45,0.06-41.35,6.18c-1.22,0.58-1.54,2.33-0.9,3.42C2.15,59.88,3.61,60.11,4.84,59.53L4.84,59.53z"/>
	</g>
</g>
<g>
	<g>
		<path class="st2" d="M6.34,46.45c10.08-4.4,21.85-5.83,32.74-4.62c1.34,0.15,2.5-1.26,2.5-2.5c0-1.48-1.15-2.35-2.5-2.5
			c-11.83-1.31-24.36,0.54-35.26,5.3c-1.24,0.54-1.52,2.35-0.9,3.42C3.67,46.83,5.1,47,6.34,46.45L6.34,46.45z"/>
	</g>
</g>
<g>
	<g>
		<path class="st2" d="M11.87,32.86c6.28-2.63,13.2-3.5,19.91-2.22c1.32,0.25,2.7-0.37,3.08-1.75c0.34-1.22-0.41-2.82-1.75-3.08
			c-7.56-1.45-15.45-0.77-22.57,2.22c-1.24,0.52-2.14,1.65-1.75,3.08C9.11,32.28,10.61,33.38,11.87,32.86L11.87,32.86z"/>
	</g>
</g>
<g>
	<g>
		<path class="st2" d="M20.27,20.36c1,0.02,2,0.09,3,0.2c0.11,0.01,1.02,0.13,0.38,0.04c0.28,0.04,0.56,0.08,0.84,0.13
			c0.53,0.08,1.06,0.18,1.58,0.28c2.06,0.41,4.09,0.96,6.05,1.72c1.22,0.47,2.8-0.52,3.08-1.75c0.33-1.43-0.44-2.57-1.75-3.08
			c-4.15-1.6-8.73-2.45-13.17-2.55c-1.31-0.03-2.56,1.17-2.5,2.5C17.83,19.23,18.87,20.33,20.27,20.36L20.27,20.36z"/>
	</g>
</g>
<g>
	<g>
		<path class="st2" d="M27.64,12.71c0.19,0.01,0.39,0.02,0.58,0.04c0.1,0.01,0.2,0.02,0.3,0.03c0.27,0.03,0.2,0.02-0.21-0.03
			c0.39,0.11,0.83,0.14,1.23,0.22c0.83,0.18,1.65,0.4,2.45,0.66c0.81,0.26,1.61,0.55,2.41,0.86c0.2,0.08,0.4,0.16,0.59,0.24
			c0.1,0.04,0.19,0.08,0.29,0.12c-0.36-0.15-0.41-0.18-0.17-0.07c0.36,0.16,0.72,0.32,1.08,0.48c0.63,0.29,1.24,0.44,1.93,0.25
			c0.58-0.16,1.21-0.61,1.49-1.15c0.58-1.1,0.37-2.84-0.9-3.42c-3.48-1.6-7.21-3.04-11.07-3.23c-1.31-0.06-2.56,1.2-2.5,2.5
			C25.2,11.62,26.24,12.64,27.64,12.71L27.64,12.71z"/>
	</g>
</g>
<g>
	<g>
		<path class="st2" d="M43.56,46.63c-0.39,4.17-1.19,8.28-1.56,12.45c-0.35,4-0.28,8.19,2.27,11.51c1.15,1.49,2.69,2.64,4.52,3.16
			c1.93,0.55,3.92,0.32,5.89,0.27c1.41-0.03,2.74,0.11,3.74,1.04c0.93,0.86,1.46,2.12,1.79,3.36c0.9,3.4,0.31,7.13-0.38,10.52
			c-0.84,4.16-2.08,8.24-2.83,12.42c-0.77,4.23-1.09,8.52-0.28,12.77c0.78,4.04,2.97,7.48,4.64,11.18
			c3.26,7.24,2.07,15.75-2.64,22.05c-0.81,1.08-0.18,2.79,0.9,3.42c1.28,0.75,2.61,0.19,3.42-0.9c4.51-6.04,6.1-13.96,4.61-21.31
			c-0.82-4-2.9-7.46-4.59-11.12c-1.71-3.68-2.05-7.59-1.68-11.6c0.79-8.38,4.71-16.41,4.24-24.94c-0.18-3.29-1.11-6.73-3.44-9.17
			c-1.2-1.26-2.83-2.17-4.54-2.5c-1.98-0.38-3.93-0.1-5.92-0.12c-4.34-0.06-5.04-4.5-4.87-8.01c0.24-4.86,1.25-9.64,1.7-14.48
			c0.13-1.35-1.24-2.5-2.5-2.5C44.61,44.13,43.69,45.28,43.56,46.63L43.56,46.63z"/>
	</g>
</g>
</svg>
